<svg xmlns="http://www.w3.org/2000/svg" width="1200" height="630" viewBox="0 0 1200 630" preserveAspectRatio="xMidYMid slice" role="img"><defs><linearGradient id="sky" x1="0" y1="0" x2="0" y2="1"><stop offset="0" stop-color="#06090b"/><stop offset="0.5" stop-color="#0b0c10"/><stop offset="0.82" stop-color="#1a0f0d"/><stop offset="1" stop-color="#2a130c"/></linearGradient><radialGradient id="fireglow" cx="27.1%" cy="59.6%" r="60%"><stop offset="0" stop-color="#ff7a2a" stop-opacity="0.6"/><stop offset="0.4" stop-color="#ff6a2c" stop-opacity="0.2"/><stop offset="1" stop-color="#ff6a2c" stop-opacity="0"/></radialGradient><linearGradient id="lake" x1="0" y1="0" x2="0" y2="1"><stop offset="0" stop-color="#2a1c18"/><stop offset="1" stop-color="#070a0d"/></linearGradient><radialGradient id="refl" cx="50%" cy="0%" r="85%"><stop offset="0" stop-color="#ff8a3a" stop-opacity="0.32"/><stop offset="1" stop-color="#ff8a3a" stop-opacity="0"/></radialGradient><radialGradient id="fire" cx="50%" cy="50%" r="50%"><stop offset="0" stop-color="#ffe08a" stop-opacity="0.95"/><stop offset="0.22" stop-color="#ff9a3a" stop-opacity="0.7"/><stop offset="0.55" stop-color="#ff6a2c" stop-opacity="0.26"/><stop offset="1" stop-color="#ff6a2c" stop-opacity="0"/></radialGradient><linearGradient id="water" x1="0" y1="0" x2="0" y2="1"><stop offset="0" stop-color="#bfe0ff" stop-opacity="0.55"/><stop offset="1" stop-color="#7fb6e8" stop-opacity="0.18"/></linearGradient><linearGradient id="aurora" x1="0" y1="0" x2="0" y2="1"><stop offset="0" stop-color="#6affc0" stop-opacity="0"/><stop offset="0.5" stop-color="#57f0b0" stop-opacity="0.85"/><stop offset="1" stop-color="#3ad0ff" stop-opacity="0"/></linearGradient><radialGradient id="vig" cx="50%" cy="42%" r="75%"><stop offset="0.62" stop-color="#000" stop-opacity="0"/><stop offset="1" stop-color="#000" stop-opacity="0.4"/></radialGradient></defs><rect width="1200" height="630" fill="url(#sky)"/><rect width="1200" height="630" fill="url(#fireglow)"/><circle cx="956.5" cy="285.6" r="0.4" fill="#fff" opacity="0.2"/><circle cx="786.7" cy="32.3" r="1.2" fill="#fff" opacity="0.4"/><circle cx="477.7" cy="200.1" r="0.9" fill="#fff" opacity="0.3"/><circle cx="906.4" cy="293.2" r="0.6" fill="#fff" opacity="0.3"/><circle cx="212.2" cy="311.8" r="1" fill="#fff" opacity="0.3"/><circle cx="186.2" cy="117.5" r="1.1" fill="#fff" opacity="0.3"/><circle cx="459.8" cy="42.9" r="0.5" fill="#fff" opacity="0.1"/><circle cx="598.6" cy="140.8" r="0.9" fill="#fff" opacity="0.2"/><circle cx="984.4" cy="44" r="1" fill="#fff" opacity="0.4"/><circle cx="989.4" cy="58.6" r="0.6" fill="#fff" opacity="0.2"/><circle cx="1140.7" cy="94.6" r="0.5" fill="#fff" opacity="0.2"/><circle cx="581.2" cy="142.5" r="1" fill="#fff" opacity="0.4"/><circle cx="75.3" cy="5.6" r="1.2" fill="#fff" opacity="0.2"/><circle cx="277.9" cy="90.5" r="0.9" fill="#fff" opacity="0.1"/><circle cx="1008.8" cy="49.6" r="1" fill="#fff" opacity="0.1"/><circle cx="667.6" cy="121.5" r="0.9" fill="#fff" opacity="0.3"/><circle cx="432.6" cy="1.9" r="1.1" fill="#fff" opacity="0.3"/><circle cx="1057.2" cy="172.1" r="1" fill="#fff" opacity="0.3"/><circle cx="257" cy="211.4" r="0.6" fill="#fff" opacity="0.3"/><circle cx="1080.9" cy="225.4" r="0.5" fill="#fff" opacity="0.2"/><circle cx="7.8" cy="165.7" r="1.3" fill="#fff" opacity="0.4"/><circle cx="815.9" cy="300.1" r="0.8" fill="#fff" opacity="0.3"/><circle cx="717.7" cy="25.2" r="0.8" fill="#fff" opacity="0.2"/><circle cx="1169.5" cy="200" r="0.4" fill="#fff" opacity="0.3"/><circle cx="102.1" cy="18.5" r="0.5" fill="#fff" opacity="0.4"/><circle cx="730" cy="11" r="1.2" fill="#fff" opacity="0.2"/><circle cx="120.2" cy="158.3" r="1.2" fill="#fff" opacity="0.1"/><circle cx="990.8" cy="107.5" r="0.6" fill="#fff" opacity="0.3"/><path d="M0 366.8 L30 366.3 L60 365 L90 363.3 L120 361.4 L150 359.7 L180 358.7 L210 358.3 L240 356.4 L270 352.8 L300 348.5 L330 344.2 L360 340.7 L390 338.7 L420 339.2 L450 341.8 L480 345.8 L510 350.3 L540 354.6 L570 357.7 L600 359 L630 359.4 L660 360.4 L690 361.9 L720 363.4 L750 364.8 L780 365.6 L810 365.6 L840 363 L870 358.1 L900 352.1 L930 346.1 L960 341.2 L990 338.5 L1020 338.4 L1050 339 L1080 339.8 L1110 340.7 L1140 341.6 L1170 342.2 L1200 342.4 L1200 630 L0 630 Z" fill="#5e3622" opacity="0.5"/><path d="M0 366.8 L30 366.3 L60 365 L90 363.3 L120 361.4 L150 359.7 L180 358.7 L210 358.3 L240 356.4 L270 352.8 L300 348.5 L330 344.2 L360 340.7 L390 338.7 L420 339.2 L450 341.8 L480 345.8 L510 350.3 L540 354.6 L570 357.7 L600 359 L630 359.4 L660 360.4 L690 361.9 L720 363.4 L750 364.8 L780 365.6 L810 365.6 L840 363 L870 358.1 L900 352.1 L930 346.1 L960 341.2 L990 338.5 L1020 338.4 L1050 339 L1080 339.8 L1110 340.7 L1140 341.6 L1170 342.2 L1200 342.4" fill="none" stroke="#ff8a3a" stroke-width="1" opacity="0.1"/><path d="M0 379.7 L30 381 L60 384.1 L90 388 L120 391.9 L150 394.6 L180 395.2 L210 395 L240 394.5 L270 394 L300 393.6 L330 393.3 L360 393.4 L390 394 L420 394.8 L450 395.8 L480 396.6 L510 397 L540 396.6 L570 395.5 L600 394 L630 392.5 L660 391.4 L690 391 L720 390.8 L750 390.5 L780 390.1 L810 389.7 L840 389.5 L870 389.2 L900 387.5 L930 384.6 L960 381.4 L990 378.7 L1020 377.2 L1050 377.8 L1080 380.6 L1110 384.5 L1140 388.7 L1170 391.9 L1200 393.2 L1200 630 L0 630 Z" fill="#3a2117" opacity="0.72"/><path d="M0 379.7 L30 381 L60 384.1 L90 388 L120 391.9 L150 394.6 L180 395.2 L210 395 L240 394.5 L270 394 L300 393.6 L330 393.3 L360 393.4 L390 394 L420 394.8 L450 395.8 L480 396.6 L510 397 L540 396.6 L570 395.5 L600 394 L630 392.5 L660 391.4 L690 391 L720 390.8 L750 390.5 L780 390.1 L810 389.7 L840 389.5 L870 389.2 L900 387.5 L930 384.6 L960 381.4 L990 378.7 L1020 377.2 L1050 377.8 L1080 380.6 L1110 384.5 L1140 388.7 L1170 391.9 L1200 393.2" fill="none" stroke="#ff8a3a" stroke-width="1" opacity="0.1"/><path d="M0 443.2 L30 440.6 L60 434.4 L90 427.1 L120 420.9 L150 418.3 L180 417 L210 414.1 L240 410.5 L270 407.6 L300 406.3 L330 407.6 L360 410.5 L390 414 L420 416.9 L450 418.1 L480 417.6 L510 416.5 L540 415.2 L570 414.1 L600 413.6 L630 414.2 L660 415.7 L690 417.4 L720 418.9 L750 419.5 L780 416.6 L810 409.6 L840 401.3 L870 394.3 L900 391.4 L930 393.7 L960 399.3 L990 405.9 L1020 411.4 L1050 413.8 L1080 412.9 L1110 410.8 L1140 408.3 L1170 406.2 L1200 405.4 L1200 630 L0 630 Z" fill="#20140f" opacity="0.9"/><path d="M0 443.2 L30 440.6 L60 434.4 L90 427.1 L120 420.9 L150 418.3 L180 417 L210 414.1 L240 410.5 L270 407.6 L300 406.3 L330 407.6 L360 410.5 L390 414 L420 416.9 L450 418.1 L480 417.6 L510 416.5 L540 415.2 L570 414.1 L600 413.6 L630 414.2 L660 415.7 L690 417.4 L720 418.9 L750 419.5 L780 416.6 L810 409.6 L840 401.3 L870 394.3 L900 391.4 L930 393.7 L960 399.3 L990 405.9 L1020 411.4 L1050 413.8 L1080 412.9 L1110 410.8 L1140 408.3 L1170 406.2 L1200 405.4" fill="none" stroke="#ff8a3a" stroke-width="1" opacity="0.2"/><ellipse cx="325.3" cy="397.3" rx="54.3" ry="25.1" fill="url(#fire)"/><ellipse cx="325.3" cy="396.3" rx="5.2" ry="3.1" fill="#fff0c4" opacity="0.85"/><ellipse cx="325.3" cy="397.3" rx="9.4" ry="7.7" fill="#5a3a2a" opacity="0.4"/><ellipse cx="331.9" cy="377.1" rx="15.5" ry="12.7" fill="#5a3a2a" opacity="0.3"/><ellipse cx="337.2" cy="356.9" rx="21.5" ry="17.6" fill="#5a3a2a" opacity="0.3"/><ellipse cx="340.2" cy="336.6" rx="27.6" ry="22.6" fill="#46434c" opacity="0.3"/><ellipse cx="342.7" cy="316.4" rx="33.6" ry="27.6" fill="#46434c" opacity="0.2"/><ellipse cx="348.2" cy="296.2" rx="39.7" ry="32.5" fill="#46434c" opacity="0.2"/><ellipse cx="358.3" cy="276" rx="45.7" ry="37.5" fill="#46434c" opacity="0.2"/><ellipse cx="370" cy="255.7" rx="51.8" ry="42.5" fill="#46434c" opacity="0.1"/><ellipse cx="377.9" cy="235.5" rx="57.8" ry="47.4" fill="#46434c" opacity="0.1"/><ellipse cx="378.7" cy="215.3" rx="63.9" ry="52.4" fill="#46434c" opacity="0.1"/><ellipse cx="374.7" cy="195.1" rx="69.9" ry="57.4" fill="#46434c" opacity="0.1"/><rect x="0" y="466.9" width="1200" height="163.1" fill="url(#lake)"/><rect x="0" y="466.9" width="1200" height="1.5" fill="#ff9a4a" opacity="0.26"/><ellipse cx="325.3" cy="466.9" rx="36.4" ry="89.7" fill="url(#refl)"/><path d="M669.2 416.1 L672.3 429.7 L666.2 429.7 Z M669.2 424.1 L674.1 440.5 L664.4 440.5 Z" fill="#160f0c"/><path d="M16.6 420.3 L19 431.5 L14.3 431.5 Z M16.6 426.8 L20.4 440.5 L12.8 440.5 Z" fill="#160f0c"/><path d="M307.1 405.4 L311.5 425.2 L302.8 425.2 Z M307.1 417 L314.1 440.5 L300.1 440.5 Z" fill="#160f0c"/><path d="M515.3 404.4 L520.1 424.8 L510.4 424.8 Z M515.3 416.3 L523.1 440.5 L507.4 440.5 Z" fill="#160f0c"/><path d="M788.6 416.7 L791.5 429.9 L785.7 429.9 Z M788.6 424.5 L793.3 440.5 L783.9 440.5 Z" fill="#160f0c"/><path d="M1153.8 422.7 L1155.6 432.5 L1151.9 432.5 Z M1153.8 428.5 L1156.7 440.5 L1150.8 440.5 Z" fill="#160f0c"/><path d="M710.5 406.9 L714.7 425.8 L706.2 425.8 Z M710.5 418 L717.4 440.5 L703.5 440.5 Z" fill="#160f0c"/><path d="M1024.7 410.9 L1028.2 427.5 L1021.2 427.5 Z M1024.7 420.6 L1030.3 440.5 L1019.1 440.5 Z" fill="#160f0c"/><path d="M1160.6 415.5 L1163.9 429.4 L1157.3 429.4 Z M1160.6 423.7 L1165.8 440.5 L1155.3 440.5 Z" fill="#160f0c"/><path d="M-0.9 402.9 L4.1 424.1 L-5.9 424.1 Z M-0.9 415.3 L7.2 440.5 L-8.9 440.5 Z" fill="#160f0c"/><path d="M488.7 416 L491.4 429.7 L486 429.7 Z M488.7 424 L493 440.5 L484.4 440.5 Z" fill="#160f0c"/><path d="M553.8 414.4 L557 429 L550.5 429 Z M553.8 423 L559 440.5 L548.6 440.5 Z" fill="#160f0c"/><path d="M925.4 409.7 L928.5 427 L922.2 427 Z M925.4 419.8 L930.5 440.5 L920.2 440.5 Z" fill="#160f0c"/><path d="M758 422.4 L759.8 432.4 L756.1 432.4 Z M758 428.2 L760.9 440.5 L755 440.5 Z" fill="#160f0c"/><path d="M935.5 423.1 L937.5 432.6 L933.6 432.6 Z M935.5 428.7 L938.7 440.5 L932.4 440.5 Z" fill="#160f0c"/><path d="M288 400 L292.6 422.9 L283.4 422.9 Z M288 413.4 L295.4 440.5 L280.6 440.5 Z" fill="#160f0c"/><path d="M322.2 414.9 L325.3 429.2 L319.1 429.2 Z M322.2 423.3 L327.2 440.5 L317.2 440.5 Z" fill="#160f0c"/><path d="M32.6 421.6 L34.7 432 L30.4 432 Z M32.6 427.7 L36.1 440.5 L29.1 440.5 Z" fill="#160f0c"/><path d="M104 415.5 L107.4 429.4 L100.6 429.4 Z M104 423.7 L109.5 440.5 L98.6 440.5 Z" fill="#160f0c"/><path d="M-3.1 422.9 L-1 432.6 L-5.1 432.6 Z M-3.1 428.6 L0.2 440.5 L-6.4 440.5 Z" fill="#160f0c"/><path d="M707.6 422.2 L709.6 432.3 L705.5 432.3 Z M707.6 428.1 L710.8 440.5 L704.3 440.5 Z" fill="#160f0c"/><path d="M807.1 405.7 L811.3 425.3 L802.9 425.3 Z M807.1 417.2 L813.9 440.5 L800.4 440.5 Z" fill="#160f0c"/><path d="M647 406.7 L651.5 425.8 L642.5 425.8 Z M647 417.9 L654.2 440.5 L639.8 440.5 Z" fill="#160f0c"/><path d="M780.8 413.5 L784.4 428.6 L777.2 428.6 Z M780.8 422.3 L786.7 440.5 L775 440.5 Z" fill="#160f0c"/><path d="M70.8 400.5 L75.3 423.1 L66.2 423.1 Z M70.8 413.7 L78.1 440.5 L63.4 440.5 Z" fill="#160f0c"/><path d="M1096 416.2 L1098.6 429.7 L1093.3 429.7 Z M1096 424.1 L1100.2 440.5 L1091.7 440.5 Z" fill="#160f0c"/><path d="M701.2 438.7 L705.5 456.2 L697 456.2 Z M701.2 449 L708 469.9 L694.4 469.9 Z" fill="#0a0807"/><path d="M687.8 420.4 L693.5 448.5 L682.1 448.5 Z M687.8 436.9 L697 469.9 L678.6 469.9 Z" fill="#0a0807"/><path d="M744.5 422.4 L750.8 449.4 L738.2 449.4 Z M744.5 438.2 L754.7 469.9 L734.4 469.9 Z" fill="#0a0807"/><path d="M135 432.3 L139.2 453.5 L130.9 453.5 Z M135 444.7 L141.7 469.9 L128.3 469.9 Z" fill="#0a0807"/><path d="M167 426.1 L171.7 450.9 L162.4 450.9 Z M167 440.7 L174.6 469.9 L159.5 469.9 Z" fill="#0a0807"/><path d="M1007.4 422.4 L1012.7 449.4 L1002.2 449.4 Z M1007.4 438.2 L1015.9 469.9 L999 469.9 Z" fill="#0a0807"/><path d="M896.9 424.3 L903 450.2 L890.8 450.2 Z M896.9 439.5 L906.7 469.9 L887.1 469.9 Z" fill="#0a0807"/><path d="M806.5 423.5 L812.8 449.8 L800.2 449.8 Z M806.5 438.9 L816.6 469.9 L796.3 469.9 Z" fill="#0a0807"/><path d="M157.3 418.9 L163.7 447.9 L150.8 447.9 Z M157.3 435.9 L167.7 469.9 L146.8 469.9 Z" fill="#0a0807"/><path d="M1180.6 429.6 L1185.4 452.4 L1175.8 452.4 Z M1180.6 443 L1188.3 469.9 L1172.9 469.9 Z" fill="#0a0807"/><path d="M1087.2 436.5 L1091 455.3 L1083.4 455.3 Z M1087.2 447.5 L1093.3 469.9 L1081.1 469.9 Z" fill="#0a0807"/><path d="M258.9 440.1 L262.3 456.8 L255.5 456.8 Z M258.9 449.9 L264.4 469.9 L253.4 469.9 Z" fill="#0a0807"/><path d="M566.7 422.3 L572 449.3 L561.4 449.3 Z M566.7 438.2 L575.3 469.9 L558.2 469.9 Z" fill="#0a0807"/><path d="M801.2 421.7 L807.7 449.1 L794.7 449.1 Z M801.2 437.7 L811.6 469.9 L790.8 469.9 Z" fill="#0a0807"/><path d="M595.6 418.2 L601.4 447.6 L589.9 447.6 Z M595.6 435.4 L604.9 469.9 L586.3 469.9 Z" fill="#0a0807"/><path d="M192.1 438.5 L196.1 456.1 L188.1 456.1 Z M192.1 448.8 L198.5 469.9 L185.7 469.9 Z" fill="#0a0807"/><path d="M1119 427.5 L1123.7 451.5 L1114.3 451.5 Z M1119 441.6 L1126.6 469.9 L1111.5 469.9 Z" fill="#0a0807"/><path d="M686.8 425.3 L692.7 450.6 L680.9 450.6 Z M686.8 440.1 L696.3 469.9 L677.3 469.9 Z" fill="#0a0807"/><path d="M995.3 446.2 L998.1 459.4 L992.4 459.4 Z M995.3 454 L999.8 469.9 L990.7 469.9 Z" fill="#0a0807"/><path d="M1163.2 433.4 L1167.7 454 L1158.7 454 Z M1163.2 445.5 L1170.5 469.9 L1155.9 469.9 Z" fill="#0a0807"/><path d="M572.6 420.8 L578.3 448.7 L566.9 448.7 Z M572.6 437.2 L581.7 469.9 L563.5 469.9 Z" fill="#0a0807"/><path d="M332.3 420.6 L337.8 448.6 L326.9 448.6 Z M332.3 437 L341.1 469.9 L323.6 469.9 Z" fill="#0a0807"/><path d="M91.2 443 L94.8 458 L87.6 458 Z M91.2 451.8 L97 469.9 L85.4 469.9 Z" fill="#0a0807"/><path d="M1142.4 432.1 L1147.2 453.5 L1137.6 453.5 Z M1142.4 444.6 L1150.1 469.9 L1134.7 469.9 Z" fill="#0a0807"/><path d="M475.9 447.2 L478.5 459.8 L473.3 459.8 Z M475.9 454.6 L480.1 469.9 L471.7 469.9 Z" fill="#0a0807"/><path d="M86.5 443.5 L89.4 458.3 L83.6 458.3 Z M86.5 452.2 L91.2 469.9 L81.8 469.9 Z" fill="#0a0807"/><path d="M612.3 446.8 L615 459.6 L609.6 459.6 Z M612.3 454.3 L616.7 469.9 L607.9 469.9 Z" fill="#0a0807"/><path d="M565.9 423.9 L572.1 450 L559.7 450 Z M565.9 439.2 L576 469.9 L555.9 469.9 Z" fill="#0a0807"/><path d="M629.3 434.3 L634.2 454.4 L624.5 454.4 Z M629.3 446 L637.1 469.9 L621.5 469.9 Z" fill="#0a0807"/><path d="M1174.9 430.5 L1179 452.8 L1170.8 452.8 Z M1174.9 443.5 L1181.6 469.9 L1168.3 469.9 Z" fill="#0a0807"/><circle cx="320.5" cy="412" r="1.9" fill="#ffc24a" opacity="0.7"/><circle cx="418.2" cy="446.7" r="1.5" fill="#ff7a2a" opacity="0.7"/><circle cx="159.6" cy="269.1" r="1.4" fill="#ffc24a" opacity="0.6"/><circle cx="232.5" cy="352.6" r="1.3" fill="#ff7a2a" opacity="0.4"/><circle cx="334" cy="361.5" r="2.3" fill="#ffc24a" opacity="0.4"/><circle cx="550.8" cy="361.4" r="2.3" fill="#ff7a2a" opacity="0.7"/><circle cx="507.3" cy="306.1" r="1" fill="#ff7a2a" opacity="0.8"/><circle cx="175.8" cy="445.2" r="1.7" fill="#ffc24a" opacity="0.5"/><circle cx="542.7" cy="413.9" r="1.3" fill="#ff7a2a" opacity="0.5"/><circle cx="207.5" cy="274.2" r="2.3" fill="#ff7a2a" opacity="0.6"/><circle cx="104.3" cy="411.1" r="1.9" fill="#ffc24a" opacity="0.7"/><circle cx="231.1" cy="296.7" r="1.4" fill="#ff7a2a" opacity="0.8"/><circle cx="114.1" cy="309.1" r="1.9" fill="#ff7a2a" opacity="0.8"/><circle cx="579.7" cy="317.6" r="1.6" fill="#ffc24a" opacity="0.7"/><circle cx="107.4" cy="411.1" r="1.8" fill="#ffc24a" opacity="0.8"/><circle cx="381.2" cy="364.2" r="1.9" fill="#ff7a2a" opacity="0.7"/><circle cx="407.1" cy="304.7" r="0.8" fill="#ffc24a" opacity="0.5"/><circle cx="118.2" cy="366.5" r="1.5" fill="#ffc24a" opacity="0.4"/><circle cx="110" cy="357.9" r="1.7" fill="#ff7a2a" opacity="0.4"/><circle cx="514.8" cy="310.7" r="1.4" fill="#ff7a2a" opacity="0.5"/><circle cx="118.9" cy="265.8" r="1.2" fill="#ffc24a" opacity="0.5"/><circle cx="472.9" cy="351.8" r="2.2" fill="#ff7a2a" opacity="0.6"/><circle cx="403.5" cy="401.5" r="1.4" fill="#ff7a2a" opacity="0.4"/><circle cx="375.4" cy="340" r="2.4" fill="#ffc24a" opacity="0.4"/><circle cx="441.3" cy="330.6" r="2.3" fill="#ffc24a" opacity="0.4"/><circle cx="160.6" cy="289.1" r="2.3" fill="#ffc24a" opacity="0.8"/><ellipse cx="929" cy="512.6" rx="9.3" ry="3.2" fill="none" stroke="#ffd9a8" stroke-width="1.1" opacity="0.3"/><ellipse cx="929" cy="512.6" rx="24.1" ry="8.2" fill="none" stroke="#ffd9a8" stroke-width="1.1" opacity="0.3"/><ellipse cx="929" cy="512.6" rx="39" ry="13.2" fill="none" stroke="#ffd9a8" stroke-width="1.1" opacity="0.2"/><circle cx="935.4" cy="507.5" r="1.3" fill="#eaf4ff" opacity="0.4"/><circle cx="931.8" cy="504.4" r="1.3" fill="#eaf4ff" opacity="0.5"/><circle cx="913.5" cy="505.5" r="1.8" fill="#eaf4ff" opacity="0.7"/><circle cx="912.2" cy="507" r="1.7" fill="#eaf4ff" opacity="0.7"/><circle cx="943.7" cy="509.7" r="1.4" fill="#eaf4ff" opacity="0.7"/><circle cx="939" cy="505.8" r="0.8" fill="#eaf4ff" opacity="0.7"/><circle cx="937.3" cy="501.5" r="1" fill="#eaf4ff" opacity="0.5"/><circle cx="921.9" cy="499.7" r="1.3" fill="#eaf4ff" opacity="0.6"/><circle cx="915.8" cy="506" r="0.8" fill="#eaf4ff" opacity="0.7"/><circle cx="940.6" cy="495.3" r="1.3" fill="#eaf4ff" opacity="0.7"/><circle cx="921.6" cy="501.5" r="1.4" fill="#eaf4ff" opacity="0.5"/><g transform="translate(923.5 458.8) rotate(-5.8) scale(0.9) scale(-1,1)"><ellipse cx="-5" cy="-26" rx="74" ry="3.4" fill="#08090a"/><ellipse cx="-5" cy="-27.2" rx="74" ry="1.1" fill="#ff8a4a" opacity="0.55"/><rect x="-8" y="-25" width="5" height="11" fill="#08090a"/><ellipse cx="66" cy="-7" rx="3" ry="10" fill="#08090a"/><path d="M-44 2 C-46 -10 -30 -16 -14 -16 C2 -16 16 -12 26 -6 L58 -3 L66 -12 L69 -3 L60 4 L24 7 C10 12 -8 12 -26 10 C-40 9 -44 7 -44 2 Z" fill="#08090a"/><path d="M-14 -16 C2 -16 16 -12 26 -6" stroke="#ff8a4a" stroke-width="1.4" fill="none" opacity="0.5"/><path d="M-34 22 L20 22 M-30 12 L-26 22 M10 12 L14 22" stroke="#08090a" stroke-width="3.2" fill="none" stroke-linecap="round"/><line x1="-6" y1="11" x2="-6" y2="42" stroke="#08090a" stroke-width="1.4"/><path d="M-13 42 L1 42 L-2 60 L-10 60 Z" fill="#08090a"/><rect x="-13.5" y="40.5" width="15" height="3.2" rx="1.4" fill="#08090a"/><rect x="-13.5" y="40.5" width="15" height="1.3" fill="#ff8a4a" opacity="0.4"/></g><rect x="0" y="335.5" width="1200" height="90" fill="#ff7a2a" opacity="0.05"/><rect width="1200" height="630" fill="url(#vig)"/></svg>