<?xml version="1.0" encoding="UTF-8"?>
<svg id="Layer_2" data-name="Layer 2" xmlns="http://www.w3.org/2000/svg" viewBox="0 0 358.46 358.48">
  <g id="Layer_1-2" data-name="Layer 1">
    <g>
      <path d="M141.4,339.24l-.64,12.79-34.37-.23c-21.47-.14-38.75-16.55-43.86-36.87l-5.44-21.64,13.48,1.23,3.65,14.66c3.94,15.83,15.85,29.69,33.05,29.81l34.13.25Z"/>
      <path d="M26.44,255.79c-7.22.5-13.98-4.37-15.4-11.49L.27,190.23c-1.69-8.48,4.81-16.16,12.76-17.11,1.22,28.16,5.52,54.92,13.42,82.68Z"/>
      <path d="M347.52,243.93c-1.51,7.61-8.12,12.15-15.54,12.04,7.74-27.11,12.19-54.35,13.44-82.84,7.96.94,14.45,8.63,12.77,17.11l-10.67,53.69Z"/>
      <path d="M196.83,358.23l-35.73.25c-1.89.01-5.39-1.13-6.17-2.55-3.1-5.61-1.42-16.47,3.49-16.5l36.84-.22c5.16-.03,9.05,4.09,9.52,8.77.39,3.84-2.42,10.21-7.95,10.25Z"/>
      <g>
        <path d="M281.15,128.09l-204.85.05c-13.4,0-24.81,10.83-24.83,24.05l-.07,44.03c-.02,12.26,4.98,23.32,11.37,33.39,3.01,17.59,6.97,34.21,11.58,51.38-12.88,2.58-27.2-3.41-31.59-16.32-12.48-36.65-18.27-74.87-16.82-113.61C29.1,66.68,93.24,0,179.24,0c54.49,0,104.24,27.41,131.46,74.92,13.32,23.24,20.85,48.94,21.83,76.27,1.39,38.93-4.36,77.43-17.15,114.14-4.4,12.64-18.85,18.08-31.11,15.67,4.48-17.29,8.37-33.85,11.44-51.4,6.36-10.09,11.38-21.11,11.36-33.4l-.07-43.92c-.02-14.16-11.98-24.19-25.85-24.19Z"/>
        <path d="M200.65,217.41c-4.65-8.21-12.63-12.29-20.97-12.41-8.19-.11-16.9,3.65-21.21,11.47-11.05,20.02-33.56,30.86-56.05,25.4-20.82-5.05-38.16-23.92-38.17-46.63l-.02-43.23c0-4.48,4.87-10.89,10.16-10.89h209.71c5.32,0,10.18,6.41,10.18,10.89l-.03,43.22c-.01,22.44-16.93,41.16-37.39,46.44-22.05,5.68-44.85-4.26-56.19-24.26ZM88.27,176.82l13.27-13.53c1.73-1.76.46-6.47-1.13-7.86-1.43-1.26-6.36-2.34-7.77-.94l-14.16,14c-2.46,2.43-1.66,7.1.69,9.11s6.37,1.99,9.09-.79ZM95.13,208.43l44.11-44.16c2.45-2.45,1.48-7.11-.58-9.09-1.62-1.56-6.5-2.03-8.51-.03l-44.94,44.94c-2.78,2.78-2.09,7.26.2,9.33,2.83,2.55,6.55,2.17,9.71-1Z"/>
      </g>
    </g>
  </g>
</svg>