<svg xmlns="http://www.w3.org/2000/svg" viewBox="0 0 512 512" role="img" aria-label="Bucket My Fire — bucket-drop flame mark">
  <defs>
    <radialGradient id="bg" cx="50%" cy="38%" r="78%">
      <stop offset="0%" stop-color="#241a14" />
      <stop offset="100%" stop-color="#0e0a08" />
    </radialGradient>
    <linearGradient id="flame" x1="0" y1="0" x2="0" y2="1">
      <stop offset="0%" stop-color="#ffc24a" />
      <stop offset="100%" stop-color="#ff6a2c" />
    </linearGradient>
  </defs>
  <!-- Full-bleed background so the icon stays edge-to-edge for the manifest `maskable` purpose. -->
  <rect width="512" height="512" fill="url(#bg)" />
  <!-- The brand bucket-drop flame mark (brand/logo/SVG/icon_*.svg geometry), centred in the
       maskable safe zone and filled with the ember gradient. -->
  <g transform="translate(134.6 106) scale(1.624)" fill="url(#flame)">
    <polygon points="149.7 134.09 74.92 184.72 0 134.31 .57 108.82 74.83 158.71 148.67 108.67 149.7 134.09" />
    <path d="M73.06,58.25c-18.59,21.04-34.35,33.63-22.6,64.65-21.97-11.26-29.05-37.71-17.05-59.08C46.45,40.59,68.12,28.39,69.08,0c16.8,18.38,20.62,39.42,3.98,58.25Z" />
    <path d="M78.83,107.06c-5.97,5.58-8.3,13.06-8.78,21.51-10.73-8.26-13.63-23.66-5.17-35.08,13.99-18.88,30.5-27.51,32.95-51.73,22.16,26.58,26.3,62.23-2.1,82.13,1.38-11.22,2.02-20.02-3.9-28.97l-12.99,12.14Z" />
  </g>
</svg>
