<svg xmlns="http://www.w3.org/2000/svg" width="1200" height="630" viewBox="0 0 1200 630">
  <defs><linearGradient id="sky" x1="0" y1="0" x2="0" y2="1"><stop offset="0" stop-color="#06090b"/><stop offset="0.5" stop-color="#0b0c10"/><stop offset="0.82" stop-color="#1a0f0d"/><stop offset="1" stop-color="#2a130c"/></linearGradient><radialGradient id="fireglow" cx="34.4%" cy="57.7%" r="60%"><stop offset="0" stop-color="#ff7a2a" stop-opacity="0.3"/><stop offset="0.4" stop-color="#ff6a2c" stop-opacity="0.1"/><stop offset="1" stop-color="#ff6a2c" stop-opacity="0"/></radialGradient><linearGradient id="lake" x1="0" y1="0" x2="0" y2="1"><stop offset="0" stop-color="#2a1c18"/><stop offset="1" stop-color="#070a0d"/></linearGradient><radialGradient id="refl" cx="50%" cy="0%" r="85%"><stop offset="0" stop-color="#ff8a3a" stop-opacity="0.32"/><stop offset="1" stop-color="#ff8a3a" stop-opacity="0"/></radialGradient><radialGradient id="fire" cx="50%" cy="50%" r="50%"><stop offset="0" stop-color="#ffe08a" stop-opacity="0.95"/><stop offset="0.22" stop-color="#ff9a3a" stop-opacity="0.7"/><stop offset="0.55" stop-color="#ff6a2c" stop-opacity="0.26"/><stop offset="1" stop-color="#ff6a2c" stop-opacity="0"/></radialGradient><linearGradient id="water" x1="0" y1="0" x2="0" y2="1"><stop offset="0" stop-color="#bfe0ff" stop-opacity="0.55"/><stop offset="1" stop-color="#7fb6e8" stop-opacity="0.18"/></linearGradient><linearGradient id="aurora" x1="0" y1="0" x2="0" y2="1"><stop offset="0" stop-color="#6affc0" stop-opacity="0"/><stop offset="0.5" stop-color="#57f0b0" stop-opacity="0.85"/><stop offset="1" stop-color="#3ad0ff" stop-opacity="0"/></linearGradient><radialGradient id="vig" cx="50%" cy="42%" r="75%"><stop offset="0.62" stop-color="#000" stop-opacity="0"/><stop offset="1" stop-color="#000" stop-opacity="0.4"/></radialGradient></defs><rect width="1200" height="630" fill="url(#sky)"/><rect width="1200" height="630" fill="url(#fireglow)"/><circle cx="8.9" cy="264.2" r="0.4" fill="#fff" opacity="0.4"/><circle cx="170.7" cy="291" r="0.5" fill="#fff" opacity="0.4"/><circle cx="1185.5" cy="246.7" r="1.2" fill="#fff" opacity="0.4"/><circle cx="307.1" cy="15" r="1" fill="#fff" opacity="0.4"/><circle cx="924.5" cy="285" r="1.1" fill="#fff" opacity="0.4"/><circle cx="1176" cy="187.1" r="1.3" fill="#fff" opacity="0.2"/><circle cx="371.1" cy="19.2" r="1.2" fill="#fff" opacity="0.4"/><circle cx="114" cy="263.2" r="1.1" fill="#fff" opacity="0.1"/><circle cx="557.9" cy="134.6" r="1.2" fill="#fff" opacity="0.5"/><circle cx="580.5" cy="96.7" r="0.7" fill="#fff" opacity="0.1"/><circle cx="609.2" cy="48.4" r="0.5" fill="#fff" opacity="0.2"/><circle cx="936" cy="293.5" r="0.8" fill="#fff" opacity="0.3"/><circle cx="739.1" cy="70.8" r="0.9" fill="#fff" opacity="0.4"/><circle cx="277.1" cy="269.6" r="1" fill="#fff" opacity="0.4"/><circle cx="911.7" cy="273.4" r="0.5" fill="#fff" opacity="0.2"/><circle cx="301.8" cy="199.8" r="0.7" fill="#fff" opacity="0.4"/><circle cx="1044.4" cy="132.4" r="0.6" fill="#fff" opacity="0.3"/><circle cx="967.6" cy="9.4" r="0.9" fill="#fff" opacity="0.5"/><circle cx="704.5" cy="160.1" r="1.1" fill="#fff" opacity="0.4"/><circle cx="643.7" cy="228.2" r="1.3" fill="#fff" opacity="0.1"/><circle cx="751.6" cy="271.5" r="0.9" fill="#fff" opacity="0.2"/><circle cx="363.6" cy="58.4" r="1.2" fill="#fff" opacity="0.1"/><circle cx="181.9" cy="74.6" r="1.1" fill="#fff" opacity="0.2"/><circle cx="241.2" cy="252" r="1.2" fill="#fff" opacity="0.4"/><circle cx="1002.5" cy="160" r="0.5" fill="#fff" opacity="0.1"/><circle cx="971.3" cy="155.7" r="1.1" fill="#fff" opacity="0.4"/><circle cx="725.4" cy="73.4" r="0.8" fill="#fff" opacity="0.4"/><circle cx="1030.5" cy="84.7" r="1.3" fill="#fff" opacity="0.3"/><path d="M0 337.3 L30 337.6 L60 338.3 L90 339.3 L120 340.3 L150 341.3 L180 341.9 L210 341.9 L240 340.4 L270 337.7 L300 334.3 L330 331 L360 328.2 L390 326.8 L420 326.6 L450 326.5 L480 326.4 L510 326.3 L540 326.1 L570 326 L600 326 L630 326.6 L660 328.2 L690 330.3 L720 332.6 L750 334.6 L780 335.9 L810 336.2 L840 337.6 L870 340 L900 343 L930 346.1 L960 348.5 L990 349.8 L1020 349.7 L1050 348.5 L1080 346.6 L1110 344.5 L1140 342.6 L1170 341.1 L1200 340.5 L1200 630 L0 630 Z" fill="#5e3622" opacity="0.5"/><path d="M0 337.3 L30 337.6 L60 338.3 L90 339.3 L120 340.3 L150 341.3 L180 341.9 L210 341.9 L240 340.4 L270 337.7 L300 334.3 L330 331 L360 328.2 L390 326.8 L420 326.6 L450 326.5 L480 326.4 L510 326.3 L540 326.1 L570 326 L600 326 L630 326.6 L660 328.2 L690 330.3 L720 332.6 L750 334.6 L780 335.9 L810 336.2 L840 337.6 L870 340 L900 343 L930 346.1 L960 348.5 L990 349.8 L1020 349.7 L1050 348.5 L1080 346.6 L1110 344.5 L1140 342.6 L1170 341.1 L1200 340.5" fill="none" stroke="#ff8a3a" stroke-width="1" opacity="0"/><path d="M0 349.3 L30 352 L60 358.7 L90 367.2 L120 375.5 L150 381.3 L180 382.7 L210 383.3 L240 384.2 L270 385.3 L300 386.3 L330 386.8 L360 386.5 L390 384.1 L420 380.5 L450 376.6 L480 373.4 L510 371.8 L540 371.8 L570 371.7 L600 371.5 L630 371.4 L660 371.3 L690 371.2 L720 369.5 L750 366.1 L780 361.9 L810 358 L840 355.4 L870 354.9 L900 354.8 L930 354.5 L960 354.3 L990 354 L1020 353.9 L1050 353.6 L1080 352.7 L1110 351.4 L1140 350 L1170 348.9 L1200 348.4 L1200 630 L0 630 Z" fill="#3a2117" opacity="0.72"/><path d="M0 349.3 L30 352 L60 358.7 L90 367.2 L120 375.5 L150 381.3 L180 382.7 L210 383.3 L240 384.2 L270 385.3 L300 386.3 L330 386.8 L360 386.5 L390 384.1 L420 380.5 L450 376.6 L480 373.4 L510 371.8 L540 371.8 L570 371.7 L600 371.5 L630 371.4 L660 371.3 L690 371.2 L720 369.5 L750 366.1 L780 361.9 L810 358 L840 355.4 L870 354.9 L900 354.8 L930 354.5 L960 354.3 L990 354 L1020 353.9 L1050 353.6 L1080 352.7 L1110 351.4 L1140 350 L1170 348.9 L1200 348.4" fill="none" stroke="#ff8a3a" stroke-width="1" opacity="0.1"/><path d="M0 415.6 L30 415.5 L60 415.3 L90 415 L120 414.8 L150 414.7 L180 410.9 L210 401.8 L240 391 L270 381.9 L300 378.1 L330 382.4 L360 392.7 L390 404.9 L420 415.1 L450 419.4 L480 418.8 L510 417.3 L540 415.5 L570 414 L600 413.4 L630 410.4 L660 403.5 L690 395.2 L720 388.2 L750 385.3 L780 385.6 L810 386.2 L840 386.9 L870 387.5 L900 387.7 L930 387.9 L960 388.3 L990 388.8 L1020 389.2 L1050 389.3 L1080 391.9 L1110 398 L1140 405.4 L1170 411.5 L1200 414.1 L1200 630 L0 630 Z" fill="#20140f" opacity="0.9"/><path d="M0 415.6 L30 415.5 L60 415.3 L90 415 L120 414.8 L150 414.7 L180 410.9 L210 401.8 L240 391 L270 381.9 L300 378.1 L330 382.4 L360 392.7 L390 404.9 L420 415.1 L450 419.4 L480 418.8 L510 417.3 L540 415.5 L570 414 L600 413.4 L630 410.4 L660 403.5 L690 395.2 L720 388.2 L750 385.3 L780 385.6 L810 386.2 L840 386.9 L870 387.5 L900 387.7 L930 387.9 L960 388.3 L990 388.8 L1020 389.2 L1050 389.3 L1080 391.9 L1110 398 L1140 405.4 L1170 411.5 L1200 414.1" fill="none" stroke="#ff8a3a" stroke-width="1" opacity="0.1"/><ellipse cx="412.9" cy="381.1" rx="28.4" ry="13.1" fill="url(#fire)"/><ellipse cx="412.9" cy="380.1" rx="2.7" ry="1.6" fill="#fff0c4" opacity="0.85"/><ellipse cx="412.9" cy="381.1" rx="4.9" ry="4" fill="#5a3a2a" opacity="0.4"/><ellipse cx="414.9" cy="368.3" rx="8.1" ry="6.6" fill="#5a3a2a" opacity="0.3"/><ellipse cx="416.5" cy="355.4" rx="11.3" ry="9.2" fill="#5a3a2a" opacity="0.3"/><ellipse cx="416.7" cy="342.6" rx="14.4" ry="11.8" fill="#46434c" opacity="0.3"/><ellipse cx="416.5" cy="329.8" rx="17.6" ry="14.4" fill="#46434c" opacity="0.2"/><ellipse cx="417.5" cy="317" rx="20.8" ry="17" fill="#46434c" opacity="0.2"/><ellipse cx="421" cy="304.2" rx="23.9" ry="19.6" fill="#46434c" opacity="0.2"/><ellipse cx="425.9" cy="291.4" rx="27.1" ry="22.2" fill="#46434c" opacity="0.1"/><ellipse cx="429.3" cy="278.6" rx="30.3" ry="24.8" fill="#46434c" opacity="0.1"/><ellipse cx="429.1" cy="265.8" rx="33.4" ry="27.4" fill="#46434c" opacity="0.1"/><ellipse cx="425.7" cy="253" rx="36.6" ry="30" fill="#46434c" opacity="0.1"/><rect x="0" y="472.3" width="1200" height="157.7" fill="url(#lake)"/><rect x="0" y="472.3" width="1200" height="1.5" fill="#ff9a4a" opacity="0.12"/><path d="M790.9 395.2 L794.9 414.1 L786.9 414.1 Z M790.9 406.3 L797.3 428.8 L784.4 428.8 Z" fill="#160f0c"/><path d="M822.3 393.6 L826.1 413.4 L818.5 413.4 Z M822.3 405.2 L828.4 428.8 L816.2 428.8 Z" fill="#160f0c"/><path d="M690.4 395.1 L694.3 414.1 L686.5 414.1 Z M690.4 406.2 L696.7 428.8 L684.2 428.8 Z" fill="#160f0c"/><path d="M195.4 400.2 L198.4 416.2 L192.3 416.2 Z M195.4 409.6 L200.3 428.8 L190.4 428.8 Z" fill="#160f0c"/><path d="M175.9 388.5 L180.4 411.3 L171.4 411.3 Z M175.9 401.9 L183.1 428.8 L168.6 428.8 Z" fill="#160f0c"/><path d="M121 397.3 L124.6 415 L117.4 415 Z M121 407.7 L126.9 428.8 L115.2 428.8 Z" fill="#160f0c"/><path d="M224.9 390.8 L229.2 412.3 L220.6 412.3 Z M224.9 403.4 L231.8 428.8 L218 428.8 Z" fill="#160f0c"/><path d="M394.2 404.1 L396.9 417.9 L391.5 417.9 Z M394.2 412.2 L398.6 428.8 L389.8 428.8 Z" fill="#160f0c"/><path d="M881 388.6 L886.3 411.4 L875.6 411.4 Z M881 401.9 L889.6 428.8 L872.3 428.8 Z" fill="#160f0c"/><path d="M937.6 395.4 L942 414.2 L933.3 414.2 Z M937.6 406.4 L944.6 428.8 L930.6 428.8 Z" fill="#160f0c"/><path d="M588.6 406.3 L591.4 418.8 L585.9 418.8 Z M588.6 413.6 L593.1 428.8 L584.2 428.8 Z" fill="#160f0c"/><path d="M557.2 395.7 L561.2 414.3 L553.3 414.3 Z M557.2 406.7 L563.6 428.8 L550.9 428.8 Z" fill="#160f0c"/><path d="M842.7 404.2 L845.7 417.9 L839.7 417.9 Z M842.7 412.2 L847.6 428.8 L837.8 428.8 Z" fill="#160f0c"/><path d="M885.3 404.4 L888.7 418 L882 418 Z M885.3 412.4 L890.7 428.8 L880 428.8 Z" fill="#160f0c"/><path d="M836.5 405.3 L839 418.4 L834 418.4 Z M836.5 413 L840.6 428.8 L832.4 428.8 Z" fill="#160f0c"/><path d="M771.6 403.6 L774.8 417.6 L768.4 417.6 Z M771.6 411.8 L776.8 428.8 L766.5 428.8 Z" fill="#160f0c"/><path d="M215.5 406.9 L217.8 419 L213.3 419 Z M215.5 414 L219.2 428.8 L211.8 428.8 Z" fill="#160f0c"/><path d="M716 404.3 L719.2 417.9 L712.8 417.9 Z M716 412.3 L721.2 428.8 L710.8 428.8 Z" fill="#160f0c"/><path d="M960.5 404.2 L963.6 417.9 L957.4 417.9 Z M960.5 412.2 L965.5 428.8 L955.5 428.8 Z" fill="#160f0c"/><path d="M1012.4 410.8 L1014.5 420.7 L1010.3 420.7 Z M1012.4 416.6 L1015.7 428.8 L1009 428.8 Z" fill="#160f0c"/><path d="M979.3 400.2 L982.2 416.2 L976.4 416.2 Z M979.3 409.6 L984 428.8 L974.6 428.8 Z" fill="#160f0c"/><path d="M229 398.9 L232.7 415.7 L225.4 415.7 Z M229 408.7 L235 428.8 L223.1 428.8 Z" fill="#160f0c"/><path d="M1206.1 392.1 L1210.9 412.8 L1201.4 412.8 Z M1206.1 404.2 L1213.8 428.8 L1198.5 428.8 Z" fill="#160f0c"/><path d="M890.4 400.8 L893.3 416.5 L887.5 416.5 Z M890.4 410 L895.1 428.8 L885.7 428.8 Z" fill="#160f0c"/><path d="M784.2 408.8 L786.6 419.8 L781.9 419.8 Z M784.2 415.3 L788.1 428.8 L780.4 428.8 Z" fill="#160f0c"/><path d="M989.7 390.2 L993.8 412 L985.6 412 Z M989.7 403 L996.3 428.8 L983.1 428.8 Z" fill="#160f0c"/><path d="M751.9 452.3 L754.8 465.1 L749 465.1 Z M751.9 459.8 L756.6 475.3 L747.2 475.3 Z" fill="#0a0807"/><path d="M548.1 437.8 L553.2 459 L543 459 Z M548.1 450.2 L556.3 475.3 L539.9 475.3 Z" fill="#0a0807"/><path d="M1168.1 438.4 L1172.3 459.2 L1163.9 459.2 Z M1168.1 450.6 L1174.9 475.3 L1161.3 475.3 Z" fill="#0a0807"/><path d="M360.4 440.7 L364.9 460.2 L356 460.2 Z M360.4 452.1 L367.6 475.3 L353.2 475.3 Z" fill="#0a0807"/><path d="M51.5 431.8 L56.8 456.5 L46.2 456.5 Z M51.5 446.3 L60.1 475.3 L43 475.3 Z" fill="#0a0807"/><path d="M522 445.5 L525.4 462.2 L518.6 462.2 Z M522 455.3 L527.5 475.3 L516.5 475.3 Z" fill="#0a0807"/><path d="M342.3 429.7 L348.4 455.6 L336.2 455.6 Z M342.3 444.9 L352.1 475.3 L332.5 475.3 Z" fill="#0a0807"/><path d="M422.4 453 L424.6 465.4 L420.1 465.4 Z M422.4 460.2 L426 475.3 L418.7 475.3 Z" fill="#0a0807"/><path d="M196.8 431.5 L202.2 456.3 L191.4 456.3 Z M196.8 446.1 L205.6 475.3 L188 475.3 Z" fill="#0a0807"/><path d="M180.2 427.6 L185.5 454.7 L174.9 454.7 Z M180.2 443.5 L188.8 475.3 L171.7 475.3 Z" fill="#0a0807"/><path d="M616.9 451.6 L619.7 464.8 L614 464.8 Z M616.9 459.3 L621.5 475.3 L612.3 475.3 Z" fill="#0a0807"/><path d="M694.9 430.2 L701 455.8 L688.7 455.8 Z M694.9 445.2 L704.8 475.3 L685 475.3 Z" fill="#0a0807"/><path d="M865.5 440.2 L869.9 460 L861.1 460 Z M865.5 451.8 L872.6 475.3 L858.4 475.3 Z" fill="#0a0807"/><path d="M686.9 453.3 L689.7 465.5 L684.2 465.5 Z M686.9 460.4 L691.3 475.3 L682.5 475.3 Z" fill="#0a0807"/><path d="M432.3 426.9 L438 454.4 L426.6 454.4 Z M432.3 443 L441.4 475.3 L423.1 475.3 Z" fill="#0a0807"/><path d="M511.6 433.1 L517 457 L506.3 457 Z M511.6 447.1 L520.2 475.3 L503.1 475.3 Z" fill="#0a0807"/><path d="M455.8 445.4 L459.2 462.2 L452.4 462.2 Z M455.8 455.2 L461.2 475.3 L450.3 475.3 Z" fill="#0a0807"/><path d="M367.2 444.1 L371.2 461.6 L363.3 461.6 Z M367.2 454.4 L373.6 475.3 L360.9 475.3 Z" fill="#0a0807"/><path d="M333.4 450.9 L336.5 464.5 L330.4 464.5 Z M333.4 458.9 L338.3 475.3 L328.5 475.3 Z" fill="#0a0807"/><path d="M465.9 427.6 L472.1 454.7 L459.7 454.7 Z M465.9 443.5 L475.9 475.3 L455.9 475.3 Z" fill="#0a0807"/><path d="M592.7 436.1 L596.9 458.3 L588.6 458.3 Z M592.7 449.1 L599.4 475.3 L586.1 475.3 Z" fill="#0a0807"/><path d="M490.6 450.1 L493.2 464.2 L488 464.2 Z M490.6 458.3 L494.8 475.3 L486.4 475.3 Z" fill="#0a0807"/><path d="M15.2 426.9 L20.4 454.4 L10.1 454.4 Z M15.2 443 L23.5 475.3 L6.9 475.3 Z" fill="#0a0807"/><path d="M867.6 436.1 L872.4 458.3 L862.9 458.3 Z M867.6 449.1 L875.3 475.3 L860 475.3 Z" fill="#0a0807"/><path d="M328.2 447.1 L331.3 462.9 L325.2 462.9 Z M328.2 456.3 L333.1 475.3 L323.4 475.3 Z" fill="#0a0807"/><path d="M116.5 438.8 L121.6 459.4 L111.5 459.4 Z M116.5 450.9 L124.7 475.3 L108.4 475.3 Z" fill="#0a0807"/><path d="M132.2 425.8 L138.1 453.9 L126.2 453.9 Z M132.2 442.3 L141.8 475.3 L122.6 475.3 Z" fill="#0a0807"/><path d="M426.2 434.7 L431.2 457.7 L421.3 457.7 Z M426.2 448.2 L434.2 475.3 L418.3 475.3 Z" fill="#0a0807"/><path d="M415.1 453.3 L418.1 465.5 L412.2 465.5 Z M415.1 460.4 L420 475.3 L410.3 475.3 Z" fill="#0a0807"/><path d="M391.3 426.6 L397.2 454.3 L385.4 454.3 Z M391.3 442.9 L400.8 475.3 L381.8 475.3 Z" fill="#0a0807"/><path d="M620.8 468.3 L620.8 451.8 L645 438.3 L669.2 451.8 L669.2 468.3 Z" fill="#0c0a09"/><rect x="631.7 " y="457.2" width="10.7" height="12.6" fill="#ffb24a" opacity="0.85"/><circle cx="164.4" cy="324.8" r="1.1" fill="#ffc24a" opacity="0.4"/><circle cx="456.7" cy="327.5" r="2" fill="#ff7a2a" opacity="0.4"/><circle cx="581.8" cy="383.1" r="2.1" fill="#ffc24a" opacity="0.6"/><circle cx="546.1" cy="391.8" r="2.2" fill="#ffc24a" opacity="0.6"/><circle cx="497.4" cy="343.7" r="0.9" fill="#ffc24a" opacity="0.4"/><rect x="0" y="323.8" width="1200" height="90" fill="#ff7a2a" opacity="0.05"/><rect width="1200" height="630" fill="url(#vig)"/>
  <defs>
    <linearGradient id="ogscrim" x1="0" y1="0" x2="1" y2="0">
      <stop offset="0%" stop-color="#05080b" stop-opacity="0.94"/>
      <stop offset="52%" stop-color="#05080b" stop-opacity="0.6"/>
      <stop offset="100%" stop-color="#05080b" stop-opacity="0"/>
    </linearGradient>
    <linearGradient id="ogfade" x1="0" y1="1" x2="0" y2="0">
      <stop offset="0%" stop-color="#05080b" stop-opacity="0.82"/>
      <stop offset="34%" stop-color="#05080b" stop-opacity="0"/>
    </linearGradient>
  </defs>
  <rect width="1200" height="630" fill="url(#ogscrim)"/>
  <rect width="1200" height="630" fill="url(#ogfade)"/>
  <rect x="0" y="0" width="1200" height="6" fill="#ff6a2c"/>
  <g font-family="Saira, 'Segoe UI', system-ui, sans-serif">
    <text x="80" y="120" fill="#ffc24a" font-size="26" font-weight="700" letter-spacing="6">FIELD NOTES · BUCKET MY FIRE</text>
    <text x="80" y="170" fill="rgba(255,255,255,0.5)" font-size="22" font-weight="600" letter-spacing="3">WILDFIRE PREPAREDNESS</text>
    <text fill="#ffffff" font-size="60" font-weight="800"><tspan x="80" y="266">Clear the Space Around</tspan><tspan x="80" y="338">Your Home</tspan></text>
  </g>
  <text x="80" y="560" fill="rgba(255,255,255,0.62)" font-family="'JetBrains Mono', monospace" font-size="22">Every fact cited to an official source.</text>
</svg>