<svg xmlns="http://www.w3.org/2000/svg" width="1200" height="630" viewBox="0 0 1200 630">
  <defs><linearGradient id="sky" x1="0" y1="0" x2="0" y2="1"><stop offset="0" stop-color="#0a0a14"/><stop offset="0.5" stop-color="#181018"/><stop offset="0.82" stop-color="#3a1a12"/><stop offset="1" stop-color="#5e2a12"/></linearGradient><radialGradient id="fireglow" cx="73.5%" cy="54.6%" r="60%"><stop offset="0" stop-color="#ff7a2a" stop-opacity="0.3"/><stop offset="0.4" stop-color="#ff6a2c" stop-opacity="0.1"/><stop offset="1" stop-color="#ff6a2c" stop-opacity="0"/></radialGradient><linearGradient id="lake" x1="0" y1="0" x2="0" y2="1"><stop offset="0" stop-color="#2a1c18"/><stop offset="1" stop-color="#070a0d"/></linearGradient><radialGradient id="refl" cx="50%" cy="0%" r="85%"><stop offset="0" stop-color="#ff8a3a" stop-opacity="0.32"/><stop offset="1" stop-color="#ff8a3a" stop-opacity="0"/></radialGradient><radialGradient id="fire" cx="50%" cy="50%" r="50%"><stop offset="0" stop-color="#ffe08a" stop-opacity="0.95"/><stop offset="0.22" stop-color="#ff9a3a" stop-opacity="0.7"/><stop offset="0.55" stop-color="#ff6a2c" stop-opacity="0.26"/><stop offset="1" stop-color="#ff6a2c" stop-opacity="0"/></radialGradient><linearGradient id="water" x1="0" y1="0" x2="0" y2="1"><stop offset="0" stop-color="#bfe0ff" stop-opacity="0.55"/><stop offset="1" stop-color="#7fb6e8" stop-opacity="0.18"/></linearGradient><linearGradient id="aurora" x1="0" y1="0" x2="0" y2="1"><stop offset="0" stop-color="#6affc0" stop-opacity="0"/><stop offset="0.5" stop-color="#57f0b0" stop-opacity="0.85"/><stop offset="1" stop-color="#3ad0ff" stop-opacity="0"/></linearGradient><radialGradient id="vig" cx="50%" cy="42%" r="75%"><stop offset="0.62" stop-color="#000" stop-opacity="0"/><stop offset="1" stop-color="#000" stop-opacity="0.4"/></radialGradient></defs><rect width="1200" height="630" fill="url(#sky)"/><rect width="1200" height="630" fill="url(#fireglow)"/><circle cx="701.6" cy="161.7" r="0.5" fill="#fff" opacity="0.3"/><circle cx="1002.6" cy="139.8" r="0.5" fill="#fff" opacity="0.2"/><circle cx="735.6" cy="109" r="0.7" fill="#fff" opacity="0.4"/><circle cx="226.1" cy="61.6" r="1.1" fill="#fff" opacity="0.3"/><circle cx="379.4" cy="43.4" r="0.6" fill="#fff" opacity="0.2"/><circle cx="111.9" cy="234.2" r="0.7" fill="#fff" opacity="0.4"/><circle cx="13.1" cy="138.1" r="1.3" fill="#fff" opacity="0.3"/><circle cx="853.9" cy="268.1" r="0.5" fill="#fff" opacity="0.4"/><circle cx="1138.9" cy="5" r="0.7" fill="#fff" opacity="0.4"/><circle cx="243.3" cy="77.8" r="1.1" fill="#fff" opacity="0.3"/><circle cx="618.9" cy="75.2" r="0.9" fill="#fff" opacity="0.4"/><circle cx="672" cy="11.8" r="0.7" fill="#fff" opacity="0.2"/><circle cx="199.7" cy="35.2" r="1.1" fill="#fff" opacity="0.2"/><path d="M0 313.6 L30 313.5 L60 313.2 L90 312.7 L120 312.2 L150 311.8 L180 311.5 L210 311.6 L240 314 L270 318.5 L300 323.9 L330 329.3 L360 333.8 L390 336.2 L420 335.8 L450 333.2 L480 329.3 L510 324.8 L540 320.6 L570 317.5 L600 316.2 L630 315.5 L660 313.8 L690 311.4 L720 308.9 L750 306.6 L780 305.2 L810 305 L840 307 L870 310.7 L900 315.2 L930 319.8 L960 323.4 L990 325.5 L1020 325.9 L1050 327.3 L1080 329.3 L1110 331.7 L1140 333.9 L1170 335.5 L1200 336.2 L1200 630 L0 630 Z" fill="#5e3622" opacity="0.5"/><path d="M0 313.6 L30 313.5 L60 313.2 L90 312.7 L120 312.2 L150 311.8 L180 311.5 L210 311.6 L240 314 L270 318.5 L300 323.9 L330 329.3 L360 333.8 L390 336.2 L420 335.8 L450 333.2 L480 329.3 L510 324.8 L540 320.6 L570 317.5 L600 316.2 L630 315.5 L660 313.8 L690 311.4 L720 308.9 L750 306.6 L780 305.2 L810 305 L840 307 L870 310.7 L900 315.2 L930 319.8 L960 323.4 L990 325.5 L1020 325.9 L1050 327.3 L1080 329.3 L1110 331.7 L1140 333.9 L1170 335.5 L1200 336.2" fill="none" stroke="#ff8a3a" stroke-width="1" opacity="0"/><path d="M0 353.4 L30 353.9 L60 355 L90 356.5 L120 357.9 L150 358.9 L180 359.2 L210 358.8 L240 358 L270 357.2 L300 356.4 L330 356 L360 356.4 L390 359.2 L420 363.4 L450 367.9 L480 371.6 L510 373.4 L540 373.2 L570 372.3 L600 371 L630 369.8 L660 368.9 L690 368.5 L720 364.5 L750 356.2 L780 346.1 L810 336.7 L840 330.6 L870 330.2 L900 336.3 L930 346.5 L960 357.9 L990 367.6 L1020 373 L1050 373.2 L1080 373 L1110 372.7 L1140 372.4 L1170 372.1 L1200 372 L1200 630 L0 630 Z" fill="#3a2117" opacity="0.72"/><path d="M0 353.4 L30 353.9 L60 355 L90 356.5 L120 357.9 L150 358.9 L180 359.2 L210 358.8 L240 358 L270 357.2 L300 356.4 L330 356 L360 356.4 L390 359.2 L420 363.4 L450 367.9 L480 371.6 L510 373.4 L540 373.2 L570 372.3 L600 371 L630 369.8 L660 368.9 L690 368.5 L720 364.5 L750 356.2 L780 346.1 L810 336.7 L840 330.6 L870 330.2 L900 336.3 L930 346.5 L960 357.9 L990 367.6 L1020 373 L1050 373.2 L1080 373 L1110 372.7 L1140 372.4 L1170 372.1 L1200 372" fill="none" stroke="#ff8a3a" stroke-width="1" opacity="0.1"/><path d="M0 397.9 L30 394.7 L60 386.9 L90 377.7 L120 370 L150 366.8 L180 371.6 L210 383.2 L240 397 L270 408.6 L300 413.5 L330 412.2 L360 409.3 L390 405.8 L420 402.8 L450 401.6 L480 398.1 L510 389.6 L540 379.5 L570 371 L600 367.5 L630 367.4 L660 367.1 L690 366.9 L720 366.6 L750 366.5 L780 370.6 L810 380.3 L840 391.9 L870 401.6 L900 405.7 L930 405.6 L960 405.2 L990 404.8 L1020 404.5 L1050 404.4 L1080 401.6 L1110 395 L1140 387.2 L1170 380.6 L1200 377.8 L1200 630 L0 630 Z" fill="#20140f" opacity="0.9"/><path d="M0 397.9 L30 394.7 L60 386.9 L90 377.7 L120 370 L150 366.8 L180 371.6 L210 383.2 L240 397 L270 408.6 L300 413.5 L330 412.2 L360 409.3 L390 405.8 L420 402.8 L450 401.6 L480 398.1 L510 389.6 L540 379.5 L570 371 L600 367.5 L630 367.4 L660 367.1 L690 366.9 L720 366.6 L750 366.5 L780 370.6 L810 380.3 L840 391.9 L870 401.6 L900 405.7 L930 405.6 L960 405.2 L990 404.8 L1020 404.5 L1050 404.4 L1080 401.6 L1110 395 L1140 387.2 L1170 380.6 L1200 377.8" fill="none" stroke="#ff8a3a" stroke-width="1" opacity="0.1"/><ellipse cx="882" cy="356.9" rx="30" ry="13.9" fill="url(#fire)"/><ellipse cx="882" cy="355.9" rx="2.9" ry="1.7" fill="#fff0c4" opacity="0.85"/><ellipse cx="882" cy="356.9" rx="5.2" ry="4.3" fill="#5a3a2a" opacity="0.4"/><ellipse cx="880.2" cy="344.9" rx="8.5" ry="7" fill="#5a3a2a" opacity="0.3"/><ellipse cx="877.8" cy="333" rx="11.9" ry="9.7" fill="#5a3a2a" opacity="0.3"/><ellipse cx="874" cy="321.1" rx="15.2" ry="12.5" fill="#46434c" opacity="0.3"/><ellipse cx="869.8" cy="309.1" rx="18.6" ry="15.2" fill="#46434c" opacity="0.2"/><ellipse cx="867" cy="297.2" rx="21.9" ry="18" fill="#46434c" opacity="0.2"/><ellipse cx="866.8" cy="285.3" rx="25.3" ry="20.7" fill="#46434c" opacity="0.2"/><ellipse cx="867.9" cy="273.3" rx="28.6" ry="23.5" fill="#46434c" opacity="0.1"/><ellipse cx="867.4" cy="261.4" rx="32" ry="26.2" fill="#46434c" opacity="0.1"/><ellipse cx="862.9" cy="249.4" rx="35.3" ry="29" fill="#46434c" opacity="0.1"/><ellipse cx="855.2" cy="237.5" rx="38.7" ry="31.7" fill="#46434c" opacity="0.1"/><rect x="0" y="458.7" width="1200" height="171.3" fill="url(#lake)"/><rect x="0" y="458.7" width="1200" height="1.5" fill="#ff9a4a" opacity="0.12"/><path d="M1185.1 385.9 L1187.9 398.5 L1182.2 398.5 Z M1185.1 393.3 L1189.6 408.7 L1180.5 408.7 Z" fill="#160f0c"/><path d="M495.9 389.6 L498 400.1 L493.7 400.1 Z M495.9 395.8 L499.4 408.7 L492.4 408.7 Z" fill="#160f0c"/><path d="M28.9 369.9 L33.6 391.8 L24.2 391.8 Z M28.9 382.8 L36.4 408.7 L21.3 408.7 Z" fill="#160f0c"/><path d="M79.5 382.1 L82.4 397 L76.7 397 Z M79.5 390.8 L84.1 408.7 L75 408.7 Z" fill="#160f0c"/><path d="M346 378.7 L349.7 395.5 L342.4 395.5 Z M346 388.6 L351.9 408.7 L340.2 408.7 Z" fill="#160f0c"/><path d="M565.5 369.1 L569.7 391.5 L561.3 391.5 Z M565.5 382.2 L572.3 408.7 L558.7 408.7 Z" fill="#160f0c"/><path d="M51.8 376.9 L55.4 394.8 L48.3 394.8 Z M51.8 387.4 L57.6 408.7 L46.1 408.7 Z" fill="#160f0c"/><path d="M158.4 387.6 L160.7 399.3 L156.1 399.3 Z M158.4 394.5 L162.1 408.7 L154.7 408.7 Z" fill="#160f0c"/><path d="M940.8 382.5 L944.2 397.1 L937.5 397.1 Z M940.8 391.1 L946.3 408.7 L935.4 408.7 Z" fill="#160f0c"/><path d="M1013.6 367.8 L1018.2 391 L1009 391 Z M1013.6 381.4 L1021 408.7 L1006.2 408.7 Z" fill="#160f0c"/><path d="M432.4 387.2 L435 399.1 L429.7 399.1 Z M432.4 394.2 L436.6 408.7 L428.1 408.7 Z" fill="#160f0c"/><path d="M76.7 386.5 L79.1 398.8 L74.3 398.8 Z M76.7 393.7 L80.6 408.7 L72.8 408.7 Z" fill="#160f0c"/><path d="M684.6 370.7 L689.6 392.2 L679.7 392.2 Z M684.6 383.3 L692.6 408.7 L676.7 408.7 Z" fill="#160f0c"/><path d="M684.7 373.7 L688.6 393.4 L680.8 393.4 Z M684.7 385.3 L690.9 408.7 L678.4 408.7 Z" fill="#160f0c"/><path d="M966.8 372.1 L971.8 392.8 L961.8 392.8 Z M966.8 384.2 L974.9 408.7 L958.8 408.7 Z" fill="#160f0c"/><path d="M1135.7 387.2 L1138.4 399.1 L1133 399.1 Z M1135.7 394.1 L1140 408.7 L1131.4 408.7 Z" fill="#160f0c"/><path d="M272.8 390.1 L275.1 400.3 L270.6 400.3 Z M272.8 396.1 L276.5 408.7 L269.2 408.7 Z" fill="#160f0c"/><path d="M167.8 390 L169.7 400.3 L166 400.3 Z M167.8 396 L170.8 408.7 L164.8 408.7 Z" fill="#160f0c"/><path d="M922.7 379.2 L926.2 395.7 L919.2 395.7 Z M922.7 388.9 L928.3 408.7 L917 408.7 Z" fill="#160f0c"/><path d="M440.5 377.3 L444 394.9 L436.9 394.9 Z M440.5 387.6 L446.2 408.7 L434.7 408.7 Z" fill="#160f0c"/><path d="M94 370.9 L98.2 392.2 L89.8 392.2 Z M94 383.4 L100.8 408.7 L87.2 408.7 Z" fill="#160f0c"/><path d="M1128.5 381.5 L1131.8 396.7 L1125.2 396.7 Z M1128.5 390.4 L1133.8 408.7 L1123.2 408.7 Z" fill="#160f0c"/><path d="M388.3 380.9 L391.8 396.4 L384.8 396.4 Z M388.3 390 L393.9 408.7 L382.7 408.7 Z" fill="#160f0c"/><path d="M1080.6 373.6 L1084.5 393.4 L1076.6 393.4 Z M1080.6 385.2 L1087 408.7 L1074.2 408.7 Z" fill="#160f0c"/><path d="M546.1 389.7 L548.4 400.1 L543.8 400.1 Z M546.1 395.8 L549.8 408.7 L542.4 408.7 Z" fill="#160f0c"/><path d="M311.4 376.7 L315.7 394.7 L307.1 394.7 Z M311.4 387.2 L318.3 408.7 L304.4 408.7 Z" fill="#160f0c"/><path d="M167.4 431.4 L170.8 448.4 L164 448.4 Z M167.4 441.4 L172.9 461.7 L161.9 461.7 Z" fill="#0a0807"/><path d="M361.1 428.1 L364.8 447 L357.4 447 Z M361.1 439.2 L367 461.7 L355.1 461.7 Z" fill="#0a0807"/><path d="M837.5 422.2 L841.9 444.5 L833.2 444.5 Z M837.5 435.3 L844.6 461.7 L830.5 461.7 Z" fill="#0a0807"/><path d="M235.3 428.6 L239.4 447.2 L231.1 447.2 Z M235.3 439.5 L242 461.7 L228.5 461.7 Z" fill="#0a0807"/><path d="M195.8 421.3 L200.4 444.1 L191.2 444.1 Z M195.8 434.7 L203.2 461.7 L188.4 461.7 Z" fill="#0a0807"/><path d="M524.7 423.4 L529.4 445.1 L520.1 445.1 Z M524.7 436.1 L532.2 461.7 L517.3 461.7 Z" fill="#0a0807"/><path d="M0.2 416.2 L6.5 442 L-6 442 Z M0.2 431.3 L10.3 461.7 L-9.9 461.7 Z" fill="#0a0807"/><path d="M102.2 411.9 L109 440.2 L95.4 440.2 Z M102.2 428.5 L113.2 461.7 L91.2 461.7 Z" fill="#0a0807"/><path d="M53 410.8 L58.8 439.8 L47.1 439.8 Z M53 427.8 L62.4 461.7 L43.6 461.7 Z" fill="#0a0807"/><path d="M131.7 411.2 L138.5 439.9 L124.9 439.9 Z M131.7 428 L142.7 461.7 L120.7 461.7 Z" fill="#0a0807"/><path d="M144 438.3 L147.1 451.3 L140.8 451.3 Z M144 445.9 L149 461.7 L138.9 461.7 Z" fill="#0a0807"/><path d="M653.7 414.6 L658.7 441.3 L648.7 441.3 Z M653.7 430.3 L661.8 461.7 L645.6 461.7 Z" fill="#0a0807"/><path d="M916.9 435.6 L919.9 450.2 L913.8 450.2 Z M916.9 444.2 L921.8 461.7 L911.9 461.7 Z" fill="#0a0807"/><path d="M1184.4 420.3 L1189.3 443.8 L1179.4 443.8 Z M1184.4 434.1 L1192.3 461.7 L1176.4 461.7 Z" fill="#0a0807"/><path d="M645.2 417.9 L649.8 442.7 L640.6 442.7 Z M645.2 432.4 L652.6 461.7 L637.8 461.7 Z" fill="#0a0807"/><path d="M321.3 409.1 L328.3 439 L314.2 439 Z M321.3 426.6 L332.7 461.7 L309.9 461.7 Z" fill="#0a0807"/><path d="M679.5 437 L682.4 450.7 L676.6 450.7 Z M679.5 445.1 L684.2 461.7 L674.7 461.7 Z" fill="#0a0807"/><path d="M1129.6 410.1 L1136.1 439.4 L1123 439.4 Z M1129.6 427.3 L1140.1 461.7 L1119 461.7 Z" fill="#0a0807"/><path d="M314.6 435.2 L318.1 450 L311.1 450 Z M314.6 443.9 L320.3 461.7 L308.9 461.7 Z" fill="#0a0807"/><path d="M943.5 433.2 L947 449.1 L939.9 449.1 Z M943.5 442.5 L949.2 461.7 L937.7 461.7 Z" fill="#0a0807"/><path d="M636.2 431.4 L639.4 448.4 L633 448.4 Z M636.2 441.4 L641.4 461.7 L631.1 461.7 Z" fill="#0a0807"/><path d="M940.7 416.3 L947 442.1 L934.4 442.1 Z M940.7 431.4 L950.8 461.7 L930.6 461.7 Z" fill="#0a0807"/><path d="M129.3 413.7 L135.6 441 L122.9 441 Z M129.3 429.7 L139.5 461.7 L119 461.7 Z" fill="#0a0807"/><path d="M329.3 427.5 L333.8 446.8 L324.7 446.8 Z M329.3 438.8 L336.6 461.7 L321.9 461.7 Z" fill="#0a0807"/><path d="M131.7 425.6 L135.5 446 L127.9 446 Z M131.7 437.5 L137.8 461.7 L125.6 461.7 Z" fill="#0a0807"/><path d="M362 411.8 L367.7 440.2 L356.3 440.2 Z M362 428.5 L371.2 461.7 L352.8 461.7 Z" fill="#0a0807"/><path d="M437 418.1 L441.9 442.8 L432.1 442.8 Z M437 432.6 L444.9 461.7 L429.1 461.7 Z" fill="#0a0807"/><path d="M1149.8 426.6 L1154.4 446.4 L1145.2 446.4 Z M1149.8 438.2 L1157.3 461.7 L1142.3 461.7 Z" fill="#0a0807"/><path d="M298.8 420.7 L303.9 443.9 L293.7 443.9 Z M298.8 434.3 L307 461.7 L290.5 461.7 Z" fill="#0a0807"/><path d="M735.2 436.5 L738.6 450.6 L731.8 450.6 Z M735.2 444.7 L740.7 461.7 L729.7 461.7 Z" fill="#0a0807"/><line x1="358.4" y1="460.7" x2="375" y2="368.8" stroke="#0a0807" stroke-width="2"/><line x1="413.6" y1="460.7" x2="397" y2="368.8" stroke="#0a0807" stroke-width="2"/><line x1="362.6" y1="437.7" x2="409.5" y2="437.7" stroke="#0a0807" stroke-width="1.4"/><line x1="358.4" y1="460.7" x2="409.5" y2="437.7" stroke="#0a0807" stroke-width="1"/><line x1="413.6" y1="460.7" x2="362.6" y2="437.7" stroke="#0a0807" stroke-width="1"/><line x1="366.7" y1="414.7" x2="405.3" y2="414.7" stroke="#0a0807" stroke-width="1.4"/><line x1="362.6" y1="437.7" x2="405.3" y2="414.7" stroke="#0a0807" stroke-width="1"/><line x1="409.5" y1="437.7" x2="366.7" y2="414.7" stroke="#0a0807" stroke-width="1"/><line x1="370.8" y1="391.8" x2="401.2" y2="391.8" stroke="#0a0807" stroke-width="1.4"/><line x1="366.7" y1="414.7" x2="401.2" y2="391.8" stroke="#0a0807" stroke-width="1"/><line x1="405.3" y1="414.7" x2="370.8" y2="391.8" stroke="#0a0807" stroke-width="1"/><line x1="375" y1="368.8" x2="397" y2="368.8" stroke="#0a0807" stroke-width="1.4"/><line x1="370.8" y1="391.8" x2="397" y2="368.8" stroke="#0a0807" stroke-width="1"/><line x1="401.2" y1="391.8" x2="375" y2="368.8" stroke="#0a0807" stroke-width="1"/><rect x="371.7" y="356.8" width="28.7" height="12" fill="#0a0807"/><path d="M369.7 356.8 L386 348.5 L402.4 356.8 Z" fill="#0a0807"/><rect x="379.7" y="358.7" width="12.6" height="6" fill="#ffb24a" opacity="0.7"/><circle cx="837.1" cy="334.6" r="1" fill="#ffc24a" opacity="0.5"/><circle cx="784.1" cy="389.1" r="1.8" fill="#ff7a2a" opacity="0.7"/><circle cx="774.9" cy="394.2" r="1.9" fill="#ff7a2a" opacity="0.7"/><circle cx="1028.7" cy="423.2" r="2.1" fill="#ff7a2a" opacity="0.4"/><circle cx="742.7" cy="427.4" r="1.4" fill="#ff7a2a" opacity="0.5"/><rect x="0" y="303.7" width="1200" height="90" fill="#ff8a3a" opacity="0.05"/><rect width="1200" height="630" fill="url(#vig)"/>
  <defs>
    <linearGradient id="ogscrim" x1="0" y1="0" x2="1" y2="0">
      <stop offset="0%" stop-color="#05080b" stop-opacity="0.94"/>
      <stop offset="52%" stop-color="#05080b" stop-opacity="0.6"/>
      <stop offset="100%" stop-color="#05080b" stop-opacity="0"/>
    </linearGradient>
    <linearGradient id="ogfade" x1="0" y1="1" x2="0" y2="0">
      <stop offset="0%" stop-color="#05080b" stop-opacity="0.82"/>
      <stop offset="34%" stop-color="#05080b" stop-opacity="0"/>
    </linearGradient>
  </defs>
  <rect width="1200" height="630" fill="url(#ogscrim)"/>
  <rect width="1200" height="630" fill="url(#ogfade)"/>
  <rect x="0" y="0" width="1200" height="6" fill="#ff6a2c"/>
  <g font-family="'JetBrains Mono', ui-monospace, monospace">
    <text x="80" y="120" fill="#ffc24a" font-size="26" font-weight="700" letter-spacing="6">FIELD NOTES · BUCKET MY FIRE</text>
    <text x="80" y="170" fill="rgba(255,255,255,0.5)" font-size="22" font-weight="600" letter-spacing="3">WILDFIRE PREPAREDNESS</text>
    <text fill="#ffffff" font-size="60" font-weight="800"><tspan x="80" y="266">Make a One-Page Wildfire</tspan><tspan x="80" y="338">Evacuation Plan</tspan></text>
  </g>
  <text x="80" y="560" fill="rgba(255,255,255,0.62)" font-family="'JetBrains Mono', monospace" font-size="22">Every fact cited to an official source.</text>
</svg>