<svg xmlns="http://www.w3.org/2000/svg" width="1200" height="630" viewBox="0 0 1200 630" preserveAspectRatio="xMidYMid slice" role="img"><defs><linearGradient id="sky" x1="0" y1="0" x2="0" y2="1"><stop offset="0" stop-color="#0a0a14"/><stop offset="0.5" stop-color="#181018"/><stop offset="0.82" stop-color="#3a1a12"/><stop offset="1" stop-color="#5e2a12"/></linearGradient><radialGradient id="fireglow" cx="60.4%" cy="53.1%" r="60%"><stop offset="0" stop-color="#ff7a2a" stop-opacity="0.7"/><stop offset="0.4" stop-color="#ff6a2c" stop-opacity="0.2"/><stop offset="1" stop-color="#ff6a2c" stop-opacity="0"/></radialGradient><linearGradient id="lake" x1="0" y1="0" x2="0" y2="1"><stop offset="0" stop-color="#2a1c18"/><stop offset="1" stop-color="#070a0d"/></linearGradient><radialGradient id="refl" cx="50%" cy="0%" r="85%"><stop offset="0" stop-color="#ff8a3a" stop-opacity="0.32"/><stop offset="1" stop-color="#ff8a3a" stop-opacity="0"/></radialGradient><radialGradient id="fire" cx="50%" cy="50%" r="50%"><stop offset="0" stop-color="#ffe08a" stop-opacity="0.95"/><stop offset="0.22" stop-color="#ff9a3a" stop-opacity="0.7"/><stop offset="0.55" stop-color="#ff6a2c" stop-opacity="0.26"/><stop offset="1" stop-color="#ff6a2c" stop-opacity="0"/></radialGradient><linearGradient id="water" x1="0" y1="0" x2="0" y2="1"><stop offset="0" stop-color="#bfe0ff" stop-opacity="0.55"/><stop offset="1" stop-color="#7fb6e8" stop-opacity="0.18"/></linearGradient><linearGradient id="aurora" x1="0" y1="0" x2="0" y2="1"><stop offset="0" stop-color="#6affc0" stop-opacity="0"/><stop offset="0.5" stop-color="#57f0b0" stop-opacity="0.85"/><stop offset="1" stop-color="#3ad0ff" stop-opacity="0"/></linearGradient><radialGradient id="vig" cx="50%" cy="42%" r="75%"><stop offset="0.62" stop-color="#000" stop-opacity="0"/><stop offset="1" stop-color="#000" stop-opacity="0.4"/></radialGradient></defs><rect width="1200" height="630" fill="url(#sky)"/><rect width="1200" height="630" fill="url(#fireglow)"/><circle cx="1023.8" cy="63.5" r="1.1" fill="#fff" opacity="0.3"/><circle cx="869.2" cy="15.4" r="1.1" fill="#fff" opacity="0.2"/><circle cx="753" cy="92" r="0.6" fill="#fff" opacity="0.3"/><circle cx="817.2" cy="30.9" r="1.1" fill="#fff" opacity="0.5"/><circle cx="272.5" cy="23.5" r="1.3" fill="#fff" opacity="0.2"/><circle cx="808.7" cy="179.3" r="1.2" fill="#fff" opacity="0.3"/><circle cx="556.6" cy="158.1" r="0.7" fill="#fff" opacity="0.4"/><circle cx="1142" cy="59.4" r="0.6" fill="#fff" opacity="0.3"/><circle cx="141.3" cy="224.1" r="0.7" fill="#fff" opacity="0.3"/><circle cx="367" cy="226.1" r="1.3" fill="#fff" opacity="0.3"/><circle cx="1142.3" cy="80" r="0.6" fill="#fff" opacity="0.2"/><circle cx="645.3" cy="170.8" r="1.2" fill="#fff" opacity="0.2"/><circle cx="432.3" cy="130.6" r="0.6" fill="#fff" opacity="0.3"/><path d="M0 302.1 L30 303.6 L60 307.4 L90 312.6 L120 318.1 L150 322.9 L180 326.1 L210 326.6 L240 324.1 L270 319.5 L300 313.9 L330 308.3 L360 303.7 L390 301.2 L420 301.3 L450 302.6 L480 304.5 L510 306.7 L540 308.7 L570 310.2 L600 310.8 L630 311.6 L660 313.5 L690 316.2 L720 318.9 L750 321.4 L780 323 L810 323.3 L840 322.7 L870 321.5 L900 320.1 L930 318.6 L960 317.4 L990 316.8 L1020 316.5 L1050 315.5 L1080 313.9 L1110 312.1 L1140 310.4 L1170 309.1 L1200 308.6 L1200 630 L0 630 Z" fill="#5e3622" opacity="0.5"/><path d="M0 302.1 L30 303.6 L60 307.4 L90 312.6 L120 318.1 L150 322.9 L180 326.1 L210 326.6 L240 324.1 L270 319.5 L300 313.9 L330 308.3 L360 303.7 L390 301.2 L420 301.3 L450 302.6 L480 304.5 L510 306.7 L540 308.7 L570 310.2 L600 310.8 L630 311.6 L660 313.5 L690 316.2 L720 318.9 L750 321.4 L780 323 L810 323.3 L840 322.7 L870 321.5 L900 320.1 L930 318.6 L960 317.4 L990 316.8 L1020 316.5 L1050 315.5 L1080 313.9 L1110 312.1 L1140 310.4 L1170 309.1 L1200 308.6" fill="none" stroke="#ff8a3a" stroke-width="1" opacity="0.1"/><path d="M0 323 L30 323.6 L60 324.9 L90 326.6 L120 328.2 L150 329.4 L180 329.6 L210 328.9 L240 327.5 L270 325.9 L300 324.5 L330 323.7 L360 323.6 L390 323.7 L420 323.9 L450 324.1 L480 324.3 L510 324.4 L540 324.4 L570 324.2 L600 324 L630 323.8 L660 323.6 L690 323.6 L720 323.2 L750 322.4 L780 321.5 L810 320.6 L840 320 L870 320.2 L900 322.1 L930 325.3 L960 329 L990 332.1 L1020 333.8 L1050 333.3 L1080 331 L1110 327.7 L1140 324.3 L1170 321.6 L1200 320.5 L1200 630 L0 630 Z" fill="#3a2117" opacity="0.72"/><path d="M0 323 L30 323.6 L60 324.9 L90 326.6 L120 328.2 L150 329.4 L180 329.6 L210 328.9 L240 327.5 L270 325.9 L300 324.5 L330 323.7 L360 323.6 L390 323.7 L420 323.9 L450 324.1 L480 324.3 L510 324.4 L540 324.4 L570 324.2 L600 324 L630 323.8 L660 323.6 L690 323.6 L720 323.2 L750 322.4 L780 321.5 L810 320.6 L840 320 L870 320.2 L900 322.1 L930 325.3 L960 329 L990 332.1 L1020 333.8 L1050 333.3 L1080 331 L1110 327.7 L1140 324.3 L1170 321.6 L1200 320.5" fill="none" stroke="#ff8a3a" stroke-width="1" opacity="0.1"/><path d="M0 384.4 L30 383.2 L60 380.3 L90 376.9 L120 374 L150 372.7 L180 373.3 L210 374.5 L240 376.1 L270 377.3 L300 377.9 L330 379.1 L360 382.1 L390 385.7 L420 388.7 L450 390 L480 390 L510 390.3 L540 390.5 L570 390.8 L600 390.9 L630 388.5 L660 383 L690 376.5 L720 371 L750 368.6 L780 368.3 L810 367.5 L840 366.5 L870 365.7 L900 365.4 L930 367.4 L960 372.3 L990 378.1 L1020 382.9 L1050 385 L1080 385.6 L1110 387.1 L1140 388.8 L1170 390.3 L1200 390.9 L1200 630 L0 630 Z" fill="#20140f" opacity="0.9"/><path d="M0 384.4 L30 383.2 L60 380.3 L90 376.9 L120 374 L150 372.7 L180 373.3 L210 374.5 L240 376.1 L270 377.3 L300 377.9 L330 379.1 L360 382.1 L390 385.7 L420 388.7 L450 390 L480 390 L510 390.3 L540 390.5 L570 390.8 L600 390.9 L630 388.5 L660 383 L690 376.5 L720 371 L750 368.6 L780 368.3 L810 367.5 L840 366.5 L870 365.7 L900 365.4 L930 367.4 L960 372.3 L990 378.1 L1020 382.9 L1050 385 L1080 385.6 L1110 387.1 L1140 388.8 L1170 390.3 L1200 390.9" fill="none" stroke="#ff8a3a" stroke-width="1" opacity="0.2"/><ellipse cx="725.4" cy="358.3" rx="49.3" ry="22.7" fill="url(#fire)"/><ellipse cx="725.4" cy="357.3" rx="4.7" ry="2.8" fill="#fff0c4" opacity="0.85"/><ellipse cx="725.4" cy="358.3" rx="8.5" ry="7" fill="#5a3a2a" opacity="0.4"/><ellipse cx="722.9" cy="339.4" rx="14" ry="11.5" fill="#5a3a2a" opacity="0.3"/><ellipse cx="719.5" cy="320.5" rx="19.5" ry="16" fill="#5a3a2a" opacity="0.3"/><ellipse cx="713.8" cy="301.6" rx="25" ry="20.5" fill="#46434c" opacity="0.3"/><ellipse cx="707.4" cy="282.7" rx="30.5" ry="25" fill="#46434c" opacity="0.2"/><ellipse cx="703.5" cy="263.9" rx="36" ry="29.5" fill="#46434c" opacity="0.2"/><ellipse cx="703.8" cy="245" rx="41.5" ry="34" fill="#46434c" opacity="0.2"/><ellipse cx="706.2" cy="226.1" rx="47" ry="38.6" fill="#46434c" opacity="0.1"/><ellipse cx="705.7" cy="207.2" rx="52.5" ry="43.1" fill="#46434c" opacity="0.1"/><ellipse cx="698.7" cy="188.3" rx="58" ry="47.6" fill="#46434c" opacity="0.1"/><ellipse cx="686.7" cy="169.4" rx="63.5" ry="52.1" fill="#46434c" opacity="0.1"/><rect x="0" y="446" width="1200" height="184" fill="url(#lake)"/><rect x="0" y="446" width="1200" height="1.5" fill="#ff9a4a" opacity="0.26"/><ellipse cx="725.4" cy="446" rx="31" ry="101.2" fill="url(#refl)"/><path d="M30.6 373.6 L33.7 388 L27.4 388 Z M30.6 382 L35.6 399.4 L25.5 399.4 Z" fill="#160f0c"/><path d="M314.5 373.9 L317.9 388.1 L311.1 388.1 Z M314.5 382.2 L320 399.4 L309 399.4 Z" fill="#160f0c"/><path d="M481.1 376.5 L483.6 389.2 L478.7 389.2 Z M481.1 383.9 L485.1 399.4 L477.1 399.4 Z" fill="#160f0c"/><path d="M210.7 376.9 L213 389.3 L208.3 389.3 Z M210.7 384.2 L214.5 399.4 L206.8 399.4 Z" fill="#160f0c"/><path d="M1207.8 364.2 L1211.9 384 L1203.8 384 Z M1207.8 375.8 L1214.3 399.4 L1201.3 399.4 Z" fill="#160f0c"/><path d="M987.7 361.4 L991.9 382.8 L983.6 382.8 Z M987.7 373.9 L994.5 399.4 L981 399.4 Z" fill="#160f0c"/><path d="M655.4 367.4 L659.3 385.4 L651.6 385.4 Z M655.4 377.9 L661.7 399.4 L649.2 399.4 Z" fill="#160f0c"/><path d="M227.4 375 L230.3 388.5 L224.4 388.5 Z M227.4 382.9 L232.2 399.4 L222.6 399.4 Z" fill="#160f0c"/><path d="M811.5 376.1 L814.3 389 L808.8 389 Z M811.5 383.7 L816 399.4 L807.1 399.4 Z" fill="#160f0c"/><path d="M1096.2 366.3 L1100.1 384.9 L1092.2 384.9 Z M1096.2 377.2 L1102.6 399.4 L1089.7 399.4 Z" fill="#160f0c"/><path d="M1206.7 368.9 L1209.9 386 L1203.5 386 Z M1206.7 378.9 L1211.9 399.4 L1201.5 399.4 Z" fill="#160f0c"/><path d="M1013.4 363.2 L1018 383.6 L1008.9 383.6 Z M1013.4 375.2 L1020.7 399.4 L1006.1 399.4 Z" fill="#160f0c"/><path d="M43.4 358.5 L48.2 381.6 L38.6 381.6 Z M43.4 372.1 L51.1 399.4 L35.6 399.4 Z" fill="#160f0c"/><path d="M991.1 361.7 L995.4 383 L986.8 383 Z M991.1 374.2 L998.1 399.4 L984.2 399.4 Z" fill="#160f0c"/><path d="M1197.7 362.2 L1202 383.2 L1193.5 383.2 Z M1197.7 374.5 L1204.6 399.4 L1190.9 399.4 Z" fill="#160f0c"/><path d="M648.8 373.2 L651.9 387.8 L645.7 387.8 Z M648.8 381.8 L653.8 399.4 L643.8 399.4 Z" fill="#160f0c"/><path d="M448.2 371.3 L451.6 387 L444.8 387 Z M448.2 380.5 L453.6 399.4 L442.8 399.4 Z" fill="#160f0c"/><path d="M566.2 363.1 L570.9 383.6 L561.6 383.6 Z M566.2 375.1 L573.8 399.4 L558.7 399.4 Z" fill="#160f0c"/><path d="M143.7 360 L148.1 382.3 L139.3 382.3 Z M143.7 373.1 L150.8 399.4 L136.6 399.4 Z" fill="#160f0c"/><path d="M333 378.7 L335.2 390.1 L330.7 390.1 Z M333 385.4 L336.6 399.4 L329.3 399.4 Z" fill="#160f0c"/><path d="M610.7 367.5 L614.1 385.4 L607.3 385.4 Z M610.7 378 L616.2 399.4 L605.2 399.4 Z" fill="#160f0c"/><path d="M524.6 361.4 L529.2 382.9 L520 382.9 Z M524.6 374 L532 399.4 L517.2 399.4 Z" fill="#160f0c"/><path d="M1023.4 378.4 L1026.1 390 L1020.7 390 Z M1023.4 385.2 L1027.8 399.4 L1019.1 399.4 Z" fill="#160f0c"/><path d="M387 378.2 L389.6 389.9 L384.4 389.9 Z M387 385.1 L391.1 399.4 L382.8 399.4 Z" fill="#160f0c"/><path d="M154.8 359 L159 381.8 L150.6 381.8 Z M154.8 372.4 L161.6 399.4 L148 399.4 Z" fill="#160f0c"/><path d="M1158 361.5 L1162.8 382.9 L1153.2 382.9 Z M1158 374 L1165.7 399.4 L1150.3 399.4 Z" fill="#160f0c"/><path d="M869.8 410.3 L874.9 432.2 L864.6 432.2 Z M869.8 423.1 L878.1 449 L861.4 449 Z" fill="#0a0807"/><path d="M833.2 412.7 L837.4 433.2 L829.1 433.2 Z M833.2 424.7 L839.9 449 L826.5 449 Z" fill="#0a0807"/><path d="M129.3 414.4 L133.4 433.9 L125.3 433.9 Z M129.3 425.9 L135.9 449 L122.8 449 Z" fill="#0a0807"/><path d="M820.4 419.3 L823.5 435.9 L817.3 435.9 Z M820.4 429 L825.4 449 L815.4 449 Z" fill="#0a0807"/><path d="M1026.6 409.4 L1030.8 431.8 L1022.4 431.8 Z M1026.6 422.5 L1033.4 449 L1019.8 449 Z" fill="#0a0807"/><path d="M234.7 398.6 L241.4 427.3 L227.9 427.3 Z M234.7 415.4 L245.5 449 L223.8 449 Z" fill="#0a0807"/><path d="M365.1 413.6 L369.1 433.6 L361.1 433.6 Z M365.1 425.3 L371.6 449 L358.7 449 Z" fill="#0a0807"/><path d="M487.3 422.8 L490.4 437.4 L484.2 437.4 Z M487.3 431.4 L492.3 449 L482.3 449 Z" fill="#0a0807"/><path d="M3.2 413.2 L7.8 433.4 L-1.4 433.4 Z M3.2 425 L10.6 449 L-4.2 449 Z" fill="#0a0807"/><path d="M728.5 399.8 L734.3 427.8 L722.7 427.8 Z M728.5 416.2 L737.9 449 L719.2 449 Z" fill="#0a0807"/><path d="M689.3 400.7 L695.7 428.1 L682.8 428.1 Z M689.3 416.8 L699.6 449 L678.9 449 Z" fill="#0a0807"/><path d="M620.2 405.6 L625.9 430.2 L614.5 430.2 Z M620.2 420 L629.4 449 L611 449 Z" fill="#0a0807"/><path d="M620.4 423.5 L623.9 437.7 L617 437.7 Z M620.4 431.8 L626 449 L614.8 449 Z" fill="#0a0807"/><path d="M183.8 425.1 L187 438.4 L180.6 438.4 Z M183.8 432.9 L188.9 449 L178.6 449 Z" fill="#0a0807"/><path d="M483 397.2 L489 426.7 L477 426.7 Z M483 414.5 L492.7 449 L473.3 449 Z" fill="#0a0807"/><path d="M583.6 409.5 L587.9 431.8 L579.2 431.8 Z M583.6 422.6 L590.6 449 L576.6 449 Z" fill="#0a0807"/><path d="M439.6 421.8 L442.8 437 L436.5 437 Z M439.6 430.7 L444.7 449 L434.5 449 Z" fill="#0a0807"/><path d="M553.1 399.1 L559.3 427.5 L547 427.5 Z M553.1 415.7 L563 449 L543.2 449 Z" fill="#0a0807"/><path d="M445.5 417.8 L449.4 435.3 L441.7 435.3 Z M445.5 428.1 L451.7 449 L439.4 449 Z" fill="#0a0807"/><path d="M526.9 416.7 L530.2 434.9 L523.6 434.9 Z M526.9 427.4 L532.3 449 L521.6 449 Z" fill="#0a0807"/><path d="M1205.5 414.3 L1210 433.9 L1201 433.9 Z M1205.5 425.8 L1212.8 449 L1198.2 449 Z" fill="#0a0807"/><path d="M401.1 399.1 L406.4 427.5 L395.9 427.5 Z M401.1 415.7 L409.6 449 L392.7 449 Z" fill="#0a0807"/><path d="M1182.8 422.1 L1186.1 437.1 L1179.5 437.1 Z M1182.8 430.9 L1188.2 449 L1177.5 449 Z" fill="#0a0807"/><path d="M828.2 425 L830.8 438.3 L825.5 438.3 Z M828.2 432.8 L832.4 449 L823.9 449 Z" fill="#0a0807"/><path d="M410.7 424.6 L413.1 438.2 L408.2 438.2 Z M410.7 432.6 L414.7 449 L406.6 449 Z" fill="#0a0807"/><path d="M1145.6 419 L1149.4 435.8 L1141.9 435.8 Z M1145.6 428.8 L1151.7 449 L1139.6 449 Z" fill="#0a0807"/><path d="M624 403 L628.9 429.1 L619.1 429.1 Z M624 418.3 L631.9 449 L616.1 449 Z" fill="#0a0807"/><path d="M624.8 396.5 L631.9 426.4 L617.7 426.4 Z M624.8 414 L636.3 449 L613.4 449 Z" fill="#0a0807"/><path d="M710.5 418.5 L714.6 435.6 L706.4 435.6 Z M710.5 428.6 L717.1 449 L703.9 449 Z" fill="#0a0807"/><path d="M951 414.2 L954.8 433.8 L947.2 433.8 Z M951 425.7 L957.1 449 L944.8 449 Z" fill="#0a0807"/><path d="M882.9 442 L882.9 422.1 L912.2 405.7 L941.4 422.1 L941.4 442 Z" fill="#0c0a09"/><rect x="896.1 " y="428.6" width="12.9" height="15.2" fill="#ffb24a" opacity="0.85"/><circle cx="481.4" cy="279.6" r="1.1" fill="#ff7a2a" opacity="0.7"/><circle cx="731.6" cy="385.1" r="0.9" fill="#ffc24a" opacity="0.3"/><circle cx="716" cy="432.6" r="1.3" fill="#ffc24a" opacity="0.6"/><circle cx="940.7" cy="419.6" r="1" fill="#ffc24a" opacity="0.8"/><circle cx="599.9" cy="423" r="2" fill="#ffc24a" opacity="0.5"/><circle cx="500.2" cy="303.9" r="1.7" fill="#ffc24a" opacity="0.5"/><circle cx="609.2" cy="353.3" r="1.9" fill="#ffc24a" opacity="0.8"/><circle cx="620.6" cy="410.7" r="2.4" fill="#ff7a2a" opacity="0.8"/><circle cx="813.8" cy="279" r="2.1" fill="#ffc24a" opacity="0.8"/><circle cx="700.4" cy="249.3" r="0.9" fill="#ffc24a" opacity="0.5"/><circle cx="574.6" cy="422.5" r="1.4" fill="#ffc24a" opacity="0.7"/><circle cx="529.1" cy="348.7" r="1.5" fill="#ffc24a" opacity="0.5"/><circle cx="982.5" cy="327.1" r="2" fill="#ffc24a" opacity="0.5"/><rect x="0" y="294.4" width="1200" height="90" fill="#ff8a3a" opacity="0.05"/><rect width="1200" height="630" fill="url(#vig)"/></svg>