<?xml version="1.0" encoding="UTF-8"?>
<svg id="Layer_2" data-name="Layer 2" xmlns="http://www.w3.org/2000/svg" viewBox="0 0 302 161.26">
  <g id="Layer_1-2" data-name="Layer 1">
    <g>
      <g>
        <path d="M0,0h18.09v1.03H0V0ZM0,2.38h18.09v1.03H0v-1.03ZM0,4.86h18.09v1.03H0v-1.03ZM0,7.23h18.09v1.03H0v-1.03ZM0,9.82h18.09v1.03H0v-1.03ZM0,12.3h36.28c1.65,0,3.1.1,5.37,1.03H0v-1.03ZM0,14.68h44.03c.31.21.93.83,1.14,1.03H0v-1.03ZM46.4,17.26c.1.1.52.93.62,1.03H0v-1.03h46.4ZM47.54,19.64c.1.1.41.93.41,1.03H0v-1.03h47.54ZM48.26,22.12l.1,1.03H0v-1.03h48.26ZM48.37,24.7v1.03H0v-1.03h48.37ZM48.37,27.18v1.03H0v-1.03h48.37ZM48.37,29.76v1.03H0v-1.03h48.37ZM0,34.93h18.09v9.09c0,3.93,1.86,6.1,5.17,6.1h1.96c3.72,0,5.06-2.38,5.06-6.1v-9.09h18.09v18.91c0,9.3-5.99,14.99-14.88,14.99H15.4c-9.61,0-15.4-5.06-15.4-14.57v-19.33Z"/>
        <path d="M74.83,12.3v1.03h-18.09v-1.03h18.09ZM74.83,14.78v1.03h-18.09v-1.03h18.09ZM74.83,17.16v1.03h-18.09v-1.03h18.09ZM74.83,19.64v1.03h-18.09v-1.03h18.09ZM74.83,22.12v1.03h-18.09v-1.03h18.09ZM74.83,24.7v1.03h-18.09v-1.03h18.09ZM74.83,27.18v1.03h-18.09v-1.03h18.09ZM74.83,29.76v1.03h-18.09v-1.03h18.09ZM105.11,34.93v19.64c0,8.58-6.2,14.26-14.26,14.26h-19.74c-8.06,0-14.37-5.68-14.37-14.26v-19.64h18.09v9.09c0,4.03,1.76,6.1,5.17,6.1h1.96c3.93,0,5.06-2.58,5.06-6.1v-9.09h18.09ZM105.11,12.3v1.03h-18.09v-1.03h18.09ZM105.11,14.78v1.03h-18.09v-1.03h18.09ZM105.11,17.16v1.03h-18.09v-1.03h18.09ZM105.11,19.64v1.03h-18.09v-1.03h18.09ZM105.11,22.12v1.03h-18.09v-1.03h18.09ZM105.11,24.7v1.03h-18.09v-1.03h18.09ZM105.11,27.18v1.03h-18.09v-1.03h18.09ZM105.11,29.76v1.03h-18.09v-1.03h18.09Z"/>
        <path d="M113.48,23.15c0-.1.21-.93.21-1.03h40.41v1.03h-40.62ZM113.58,24.7h40.51v1.03h-40.51v-1.03ZM113.58,27.18h40.51v1.03h-40.51v-1.03ZM113.58,29.76h40.51v1.03h-40.51v-1.03ZM154.1,50.23v18.71h-26.25c-8.06,0-14.26-5.79-14.26-14.37v-18.81h18.09v7.54c0,4.03,2.58,6.92,6.72,6.92h15.71ZM114,20.67c0-.1.21-.93.31-1.03h39.79v1.03h-40.1ZM114.93,18.29c.1-.1.52-.93.62-1.03h38.55v1.03h-39.17ZM154.1,14.68v1.03h-37.31c.21-.21.83-.83,1.14-1.03h36.17ZM154.1,12.3v1.03h-33.9c2.27-.93,3.82-1.03,5.48-1.03h28.42Z"/>
        <path d="M162.26,0h18.09v1.03h-18.09V0ZM162.26,2.38h18.09v1.03h-18.09v-1.03ZM162.26,4.86h18.09v1.03h-18.09v-1.03ZM162.26,7.23h18.09v1.03h-18.09v-1.03ZM162.26,9.82h18.09v1.03h-18.09v-1.03ZM180.35,12.3v1.03h-18.09v-1.03h18.09ZM180.35,14.78v1.03h-18.09v-1.03h18.09ZM180.35,17.16v1.03h-18.09v-1.03h18.09ZM180.35,19.64v1.03h-18.09v-1.03h18.09ZM180.35,22.12v1.03h-18.09v-1.03h18.09ZM180.35,24.7v1.03h-18.09v-1.03h18.09ZM180.35,27.18v1.03h-18.09v-1.03h18.09ZM180.35,29.76v1.03h-18.09v-1.03h18.09ZM162.26,35.04h28.83c8.47,0,11.89,3.82,14.78,12.09l7.75,21.81h-19.74l-6.72-19.53c-1.45-4.13-2.27-4.65-5.48-4.65h-1.34v24.18h-18.09v-33.9ZM201.84,29.76l-.52,1.03h-18.09l.52-1.03h18.08ZM203.08,27.18l-.52,1.03h-18.09l.52-1.03h18.09ZM204.32,24.7l-.52,1.03h-18.19l.52-1.03h18.19ZM205.56,22.12l-.52,1.03h-18.09l.52-1.03h18.09ZM206.81,19.64l-.52,1.03h-18.19l.52-1.03h18.19ZM208.05,17.16l-.52,1.03h-18.19l.52-1.03h18.19ZM209.08,14.78l-.52,1.03h-18.09l.52-1.03h18.08ZM210.32,12.3l-.52,1.03h-18.09l.52-1.03h18.09Z"/>
        <path d="M217.76,23.15c0-.1.21-.93.21-1.03h44.85v1.03h-45.06ZM217.76,24.7h45.06v1.03h-45.06v-1.03ZM217.76,27.18h45.06v1.03h-45.06v-1.03ZM217.76,29.76h45.06v1.03h-45.06v-1.03ZM262.82,68.93h-30.69c-8.06,0-14.37-5.79-14.37-14.37v-18.81h39.07v9.51h-20.57c0,3.1.52,4.96,4.44,4.96h22.12v18.71ZM218.28,20.67c0-.1.21-.93.31-1.03h44.23v1.03h-44.54ZM219.21,18.29c.1-.1.52-.93.62-1.03h42.99v1.03h-43.61ZM262.82,14.68v1.03h-41.75c.21-.21.83-.83,1.14-1.03h40.62ZM262.82,12.3v1.03h-38.34c1.96-.83,3.51-1.03,5.48-1.03h32.86Z"/>
        <path d="M270.99,0h18.09v1.03h-18.09V0ZM270.99,2.38h18.09v1.03h-18.09v-1.03ZM270.99,4.86h18.09v1.03h-18.09v-1.03ZM270.99,7.23h18.09v1.03h-18.09v-1.03ZM270.99,9.82h18.09v1.03h-18.09v-1.03ZM300.65,12.3v1.03h-29.66v-1.03h29.66ZM300.65,14.78v1.03h-29.66v-1.03h29.66ZM300.65,17.16v1.03h-29.66v-1.03h29.66ZM300.65,19.64v1.03h-29.66v-1.03h29.66ZM300.65,22.12v1.03h-29.66v-1.03h29.66ZM300.65,24.7v1.03h-29.66v-1.03h29.66ZM300.65,27.18v1.03h-29.66v-1.03h29.66ZM300.65,29.76v1.03h-29.66v-1.03h29.66ZM270.99,35.14h18.09v8.78c0,4.34,1.24,6.3,5.99,6.3h5.58v18.71h-15.61c-7.44,0-14.06-4.86-14.06-14.88v-18.91Z"/>
      </g>
      <g>
        <path d="M145.73,97.19c0-.1.21-.93.21-1.03h38.65v1.03h-38.86ZM145.73,98.74h38.86v1.03h-38.86v-1.03ZM145.73,101.22h38.86v1.03h-38.86v-1.03ZM145.73,103.8h38.86v1.03h-38.86v-1.03ZM145.73,109.28h32.86v9.82h-9.71v42.17h-18.09v-42.17h-5.06v-9.82ZM146.25,94.71c0-.1.21-.93.31-1.03h38.03v1.03h-38.34ZM147.18,92.33c.1-.1.52-.93.62-1.03h36.79v1.03h-37.41ZM184.59,88.71v1.03h-35.55c.21-.21.83-.83,1.14-1.03h34.41ZM184.59,86.33v1.03h-32.14c2.27-.93,3.82-1.03,5.48-1.03h26.66Z"/>
        <path d="M210.94,86.33v1.03h-18.09v-1.03h18.09ZM210.94,88.81v1.03h-18.09v-1.03h18.09ZM210.94,91.19v1.03h-18.09v-1.03h18.09ZM210.94,93.67v1.03h-18.09v-1.03h18.09ZM210.94,96.15v1.03h-18.09v-1.03h18.09ZM210.94,98.74v1.03h-18.09v-1.03h18.09ZM210.94,101.22v1.03h-18.09v-1.03h18.09ZM210.94,103.8v1.03h-18.09v-1.03h18.09ZM192.86,109.07h18.09v33.9h-18.09v-33.9Z"/>
        <path d="M219.11,98.74h29.56v1.03h-29.56v-1.03ZM219.11,101.22h29.56v1.03h-29.56v-1.03ZM219.11,103.8h29.56v1.03h-29.56v-1.03ZM219.11,109.17h18.09v33.79h-18.09v-33.79ZM219.21,97.19c0-.1.21-.93.21-1.03h29.25v1.03h-29.45ZM219.73,94.71c0-.1.21-.93.31-1.03h28.63v1.03h-28.94ZM220.66,92.33c.1-.1.52-.93.62-1.03h27.39v1.03h-28.01ZM248.67,88.71v1.03h-26.15c.21-.21.83-.83,1.14-1.03h25.01ZM248.67,86.33v1.03h-22.74c2.27-.93,3.82-1.03,5.48-1.03h17.26Z"/>
        <path d="M256.94,97.19c0-.1.21-.93.21-1.03h44.85v1.03h-45.06ZM256.94,98.74h45.06v1.03h-45.06v-1.03ZM256.94,101.22h45.06v1.03h-45.06v-1.03ZM256.94,103.8h45.06v1.03h-45.06v-1.03ZM302,142.97h-30.69c-8.06,0-14.37-5.79-14.37-14.37v-18.81h39.07v9.51h-20.57c0,3.1.52,4.96,4.44,4.96h22.12v18.71ZM257.45,94.71c0-.1.21-.93.31-1.03h44.23v1.03h-44.54ZM258.38,92.33c.1-.1.52-.93.62-1.03h42.99v1.03h-43.61ZM302,88.71v1.03h-41.75c.21-.21.83-.83,1.14-1.03h40.62ZM302,86.33v1.03h-38.34c1.96-.83,3.51-1.03,5.48-1.03h32.86Z"/>
      </g>
      <g>
        <path d="M0,86.33h60.25c1.65,0,3.1.1,5.37,1.03H0v-1.03ZM0,88.71h67.9c.31.21,1.03.83,1.24,1.03H0v-1.03ZM70.28,91.29c.1.1.52.93.62,1.03H0v-1.03h70.28ZM71.52,93.67c.1.1.41.93.41,1.03H0v-1.03h71.52ZM72.24,96.15l.1,1.03H0v-1.03h72.24ZM72.55,98.74v1.03H0v-1.03h72.55ZM72.55,101.22v1.03H0v-1.03h72.55ZM72.55,103.8v1.03H0v-1.03h72.55ZM0,109.07h18.81v33.9H0v-33.9ZM26.97,109.07h18.4v33.9h-18.4v-33.9ZM53.74,109.07h18.81v33.9h-18.81v-33.9Z"/>
        <path d="M99.32,86.33v1.02h-18.81v-1.02h18.81ZM99.32,88.79v1.02h-18.81v-1.02h18.81ZM99.32,91.15v1.02h-18.81v-1.02h18.81ZM99.32,93.6v1.02h-18.81v-1.02h18.81ZM99.32,96.06v1.02h-18.81v-1.02h18.81ZM99.32,98.62v1.02h-18.81v-1.02h18.81ZM99.32,101.07v1.02h-18.81v-1.02h18.81ZM99.32,103.63v1.02h-18.81v-1.02h18.81ZM80.51,108.96h18.81v8.29c0,4.81,2.27,6.65,4.75,6.65h1.76c2.48,0,4.75-2.05,4.86-3.38.1-.72.21-2.05.21-2.97v-8.6h18.5v19.24c0,8.39-5.06,13.51-15.19,14.53v18.53h-18.4v-18.53c-9.4-.41-15.3-6.04-15.3-14.53v-19.24ZM129.4,86.33v1.02h-18.5v-1.02h18.5ZM129.4,88.79v1.02h-18.5v-1.02h18.5ZM129.4,91.15v1.02h-18.5v-1.02h18.5ZM129.4,93.6v1.02h-18.5v-1.02h18.5ZM129.4,96.06v1.02h-18.5v-1.02h18.5ZM129.4,98.62v1.02h-18.5v-1.02h18.5ZM129.4,101.07v1.02h-18.5v-1.02h18.5ZM129.4,103.63v1.02h-18.5v-1.02h18.5Z"/>
      </g>
    </g>
  </g>
</svg>