<svg xmlns="http://www.w3.org/2000/svg" width="1200" height="630" viewBox="0 0 1200 630">
  <defs><linearGradient id="sky" x1="0" y1="0" x2="0" y2="1"><stop offset="0" stop-color="#0a0a14"/><stop offset="0.5" stop-color="#181018"/><stop offset="0.82" stop-color="#3a1a12"/><stop offset="1" stop-color="#5e2a12"/></linearGradient><radialGradient id="fireglow" cx="52.1%" cy="58.7%" r="60%"><stop offset="0" stop-color="#ff7a2a" stop-opacity="0.7"/><stop offset="0.4" stop-color="#ff6a2c" stop-opacity="0.2"/><stop offset="1" stop-color="#ff6a2c" stop-opacity="0"/></radialGradient><linearGradient id="lake" x1="0" y1="0" x2="0" y2="1"><stop offset="0" stop-color="#2a1c18"/><stop offset="1" stop-color="#070a0d"/></linearGradient><radialGradient id="refl" cx="50%" cy="0%" r="85%"><stop offset="0" stop-color="#ff8a3a" stop-opacity="0.32"/><stop offset="1" stop-color="#ff8a3a" stop-opacity="0"/></radialGradient><radialGradient id="fire" cx="50%" cy="50%" r="50%"><stop offset="0" stop-color="#ffe08a" stop-opacity="0.95"/><stop offset="0.22" stop-color="#ff9a3a" stop-opacity="0.7"/><stop offset="0.55" stop-color="#ff6a2c" stop-opacity="0.26"/><stop offset="1" stop-color="#ff6a2c" stop-opacity="0"/></radialGradient><linearGradient id="water" x1="0" y1="0" x2="0" y2="1"><stop offset="0" stop-color="#bfe0ff" stop-opacity="0.55"/><stop offset="1" stop-color="#7fb6e8" stop-opacity="0.18"/></linearGradient><linearGradient id="aurora" x1="0" y1="0" x2="0" y2="1"><stop offset="0" stop-color="#6affc0" stop-opacity="0"/><stop offset="0.5" stop-color="#57f0b0" stop-opacity="0.85"/><stop offset="1" stop-color="#3ad0ff" stop-opacity="0"/></linearGradient><radialGradient id="vig" cx="50%" cy="42%" r="75%"><stop offset="0.62" stop-color="#000" stop-opacity="0"/><stop offset="1" stop-color="#000" stop-opacity="0.4"/></radialGradient></defs><rect width="1200" height="630" fill="url(#sky)"/><rect width="1200" height="630" fill="url(#fireglow)"/><circle cx="727.3" cy="214.8" r="0.6" fill="#fff" opacity="0.5"/><circle cx="643.6" cy="11.6" r="1.3" fill="#fff" opacity="0.2"/><circle cx="952" cy="153.2" r="1" fill="#fff" opacity="0.2"/><circle cx="469.9" cy="173.7" r="1.1" fill="#fff" opacity="0.4"/><circle cx="945.1" cy="33.6" r="0.6" fill="#fff" opacity="0.3"/><circle cx="410.3" cy="124.9" r="0.4" fill="#fff" opacity="0.3"/><circle cx="518.8" cy="211.8" r="0.9" fill="#fff" opacity="0.4"/><circle cx="1144.5" cy="193.4" r="0.8" fill="#fff" opacity="0.4"/><circle cx="404.9" cy="115.3" r="0.7" fill="#fff" opacity="0.4"/><circle cx="878.6" cy="171.2" r="1.2" fill="#fff" opacity="0.3"/><circle cx="1091.3" cy="43.5" r="1.1" fill="#fff" opacity="0.2"/><circle cx="96.2" cy="109.2" r="0.5" fill="#fff" opacity="0.2"/><circle cx="192.2" cy="158.1" r="0.5" fill="#fff" opacity="0.3"/><path d="M0 335.5 L30 336.6 L60 339.2 L90 342.8 L120 346.7 L150 350 L180 352.3 L210 352.7 L240 351.8 L270 350.2 L300 348.3 L330 346.4 L360 344.8 L390 343.9 L420 343.5 L450 342.1 L480 339.8 L510 337.3 L540 334.9 L570 333.1 L600 332.4 L630 333.9 L660 337.9 L690 343.1 L720 348.7 L750 353.6 L780 356.9 L810 357.4 L840 355.1 L870 350.8 L900 345.6 L930 340.4 L960 336.2 L990 333.9 L1020 334.2 L1050 336.2 L1080 339.4 L1110 343 L1140 346.4 L1170 349 L1200 350 L1200 630 L0 630 Z" fill="#5e3622" opacity="0.5"/><path d="M0 335.5 L30 336.6 L60 339.2 L90 342.8 L120 346.7 L150 350 L180 352.3 L210 352.7 L240 351.8 L270 350.2 L300 348.3 L330 346.4 L360 344.8 L390 343.9 L420 343.5 L450 342.1 L480 339.8 L510 337.3 L540 334.9 L570 333.1 L600 332.4 L630 333.9 L660 337.9 L690 343.1 L720 348.7 L750 353.6 L780 356.9 L810 357.4 L840 355.1 L870 350.8 L900 345.6 L930 340.4 L960 336.2 L990 333.9 L1020 334.2 L1050 336.2 L1080 339.4 L1110 343 L1140 346.4 L1170 349 L1200 350" fill="none" stroke="#ff8a3a" stroke-width="1" opacity="0.1"/><path d="M0 361.9 L30 361.5 L60 360.7 L90 359.7 L120 358.7 L150 358 L180 357.8 L210 357.6 L240 357.2 L270 356.8 L300 356.4 L330 356.1 L360 356.6 L390 359.2 L420 363.1 L450 367.4 L480 370.9 L510 372.6 L540 373.7 L570 377 L600 381.4 L630 385.8 L660 389.1 L690 390.1 L720 390.1 L750 389.9 L780 389.7 L810 389.6 L840 389.5 L870 389.2 L900 386.7 L930 382.6 L960 378.1 L990 374.2 L1020 372 L1050 371.3 L1080 368.7 L1110 365.1 L1140 361.3 L1170 358.4 L1200 357.2 L1200 630 L0 630 Z" fill="#3a2117" opacity="0.72"/><path d="M0 361.9 L30 361.5 L60 360.7 L90 359.7 L120 358.7 L150 358 L180 357.8 L210 357.6 L240 357.2 L270 356.8 L300 356.4 L330 356.1 L360 356.6 L390 359.2 L420 363.1 L450 367.4 L480 370.9 L510 372.6 L540 373.7 L570 377 L600 381.4 L630 385.8 L660 389.1 L690 390.1 L720 390.1 L750 389.9 L780 389.7 L810 389.6 L840 389.5 L870 389.2 L900 386.7 L930 382.6 L960 378.1 L990 374.2 L1020 372 L1050 371.3 L1080 368.7 L1110 365.1 L1140 361.3 L1170 358.4 L1200 357.2" fill="none" stroke="#ff8a3a" stroke-width="1" opacity="0.1"/><path d="M0 411.7 L30 413.6 L60 418.1 L90 423.5 L120 428 L150 429.9 L180 430.2 L210 430.9 L240 431.6 L270 432.3 L300 432.6 L330 427.5 L360 415.5 L390 401.2 L420 389.2 L450 384.2 L480 388.4 L510 398.3 L540 410.2 L570 420.2 L600 424.3 L630 421.5 L660 414.9 L690 406.9 L720 400.2 L750 397.4 L780 398.9 L810 402.5 L840 406.7 L870 410.2 L900 411.7 L930 414.3 L960 420.5 L990 427.8 L1020 433.9 L1050 436.5 L1080 434.3 L1110 429.1 L1140 422.8 L1170 417.6 L1200 415.4 L1200 630 L0 630 Z" fill="#20140f" opacity="0.9"/><path d="M0 411.7 L30 413.6 L60 418.1 L90 423.5 L120 428 L150 429.9 L180 430.2 L210 430.9 L240 431.6 L270 432.3 L300 432.6 L330 427.5 L360 415.5 L390 401.2 L420 389.2 L450 384.2 L480 388.4 L510 398.3 L540 410.2 L570 420.2 L600 424.3 L630 421.5 L660 414.9 L690 406.9 L720 400.2 L750 397.4 L780 398.9 L810 402.5 L840 406.7 L870 410.2 L900 411.7 L930 414.3 L960 420.5 L990 427.8 L1020 433.9 L1050 436.5 L1080 434.3 L1110 429.1 L1140 422.8 L1170 417.6 L1200 415.4" fill="none" stroke="#ff8a3a" stroke-width="1" opacity="0.2"/><ellipse cx="625" cy="382" rx="51.6" ry="23.8" fill="url(#fire)"/><ellipse cx="625" cy="381" rx="5" ry="3" fill="#fff0c4" opacity="0.85"/><ellipse cx="625" cy="382" rx="8.9" ry="7.3" fill="#5a3a2a" opacity="0.4"/><ellipse cx="631.9" cy="363" rx="14.7" ry="12" fill="#5a3a2a" opacity="0.3"/><ellipse cx="637.9" cy="344" rx="20.4" ry="16.8" fill="#5a3a2a" opacity="0.3"/><ellipse cx="641.6" cy="325" rx="26.2" ry="21.5" fill="#46434c" opacity="0.3"/><ellipse cx="644.3" cy="306" rx="31.9" ry="26.2" fill="#46434c" opacity="0.2"/><ellipse cx="649.3" cy="287" rx="37.7" ry="30.9" fill="#46434c" opacity="0.2"/><ellipse cx="658.8" cy="268" rx="43.5" ry="35.6" fill="#46434c" opacity="0.2"/><ellipse cx="670.9" cy="249" rx="49.2" ry="40.4" fill="#46434c" opacity="0.1"/><ellipse cx="680.3" cy="230" rx="55" ry="45.1" fill="#46434c" opacity="0.1"/><ellipse cx="683.1" cy="211" rx="60.7" ry="49.8" fill="#46434c" opacity="0.1"/><ellipse cx="680.1" cy="192" rx="66.5" ry="54.5" fill="#46434c" opacity="0.1"/><rect x="0" y="447.6" width="1200" height="182.4" fill="url(#lake)"/><rect x="0" y="447.6" width="1200" height="1.5" fill="#ff9a4a" opacity="0.26"/><ellipse cx="625" cy="447.6" rx="44.1" ry="100.3" fill="url(#refl)"/><path d="M100.5 399 L104.9 419.1 L96.1 419.1 Z M100.5 410.8 L107.5 434.7 L93.4 434.7 Z" fill="#160f0c"/><path d="M244 397 L248.1 418.3 L239.9 418.3 Z M244 409.5 L250.6 434.7 L237.4 434.7 Z" fill="#160f0c"/><path d="M236.2 402.8 L239.7 420.7 L232.7 420.7 Z M236.2 413.3 L241.8 434.7 L230.6 434.7 Z" fill="#160f0c"/><path d="M750.8 416.2 L753.1 426.4 L748.6 426.4 Z M750.8 422.2 L754.5 434.7 L747.2 434.7 Z" fill="#160f0c"/><path d="M192.9 407.9 L196.1 422.9 L189.6 422.9 Z M192.9 416.7 L198.1 434.7 L187.7 434.7 Z" fill="#160f0c"/><path d="M141.4 394 L146.8 417.1 L136 417.1 Z M141.4 407.5 L150.1 434.7 L132.7 434.7 Z" fill="#160f0c"/><path d="M559.1 395.8 L563.1 417.8 L555 417.8 Z M559.1 408.7 L565.6 434.7 L552.6 434.7 Z" fill="#160f0c"/><path d="M1076.8 400.5 L1081.5 419.8 L1072.2 419.8 Z M1076.8 411.8 L1084.3 434.7 L1069.4 434.7 Z" fill="#160f0c"/><path d="M431.1 403.8 L434.3 421.2 L427.9 421.2 Z M431.1 414 L436.2 434.7 L426 434.7 Z" fill="#160f0c"/><path d="M57.2 412.4 L60.2 424.8 L54.3 424.8 Z M57.2 419.7 L62 434.7 L52.4 434.7 Z" fill="#160f0c"/><path d="M794.1 406.6 L797.8 422.3 L790.5 422.3 Z M794.1 415.8 L800 434.7 L788.2 434.7 Z" fill="#160f0c"/><path d="M554.9 396.1 L559.2 417.9 L550.6 417.9 Z M554.9 408.9 L561.8 434.7 L548 434.7 Z" fill="#160f0c"/><path d="M480 412.8 L482.8 424.9 L477.2 424.9 Z M480 419.9 L484.5 434.7 L475.5 434.7 Z" fill="#160f0c"/><path d="M626.1 403.8 L630 421.2 L622.2 421.2 Z M626.1 414 L632.4 434.7 L619.9 434.7 Z" fill="#160f0c"/><path d="M794.4 401.1 L798.4 420 L790.5 420 Z M794.4 412.2 L800.8 434.7 L788.1 434.7 Z" fill="#160f0c"/><path d="M455 405.9 L458.8 422 L451.2 422 Z M455 415.3 L461.1 434.7 L448.9 434.7 Z" fill="#160f0c"/><path d="M1102.1 415 L1104.6 425.9 L1099.6 425.9 Z M1102.1 421.4 L1106.2 434.7 L1098 434.7 Z" fill="#160f0c"/><path d="M224.8 396.5 L229.7 418.1 L219.9 418.1 Z M224.8 409.2 L232.7 434.7 L216.9 434.7 Z" fill="#160f0c"/><path d="M566.3 400.6 L570.5 419.8 L562 419.8 Z M566.3 411.8 L573.1 434.7 L559.4 434.7 Z" fill="#160f0c"/><path d="M510.1 411.9 L512.8 424.6 L507.5 424.6 Z M510.1 419.3 L514.4 434.7 L505.8 434.7 Z" fill="#160f0c"/><path d="M757.5 404.6 L760.8 421.5 L754.1 421.5 Z M757.5 414.5 L762.9 434.7 L752 434.7 Z" fill="#160f0c"/><path d="M936.4 394.2 L941.3 417.1 L931.6 417.1 Z M936.4 407.6 L944.2 434.7 L928.7 434.7 Z" fill="#160f0c"/><path d="M487.7 406.5 L490.6 422.3 L484.8 422.3 Z M487.7 415.8 L492.4 434.7 L483 434.7 Z" fill="#160f0c"/><path d="M279.3 407.4 L282.4 422.7 L276.3 422.7 Z M279.3 416.4 L284.2 434.7 L274.4 434.7 Z" fill="#160f0c"/><path d="M1143.4 402.9 L1147.2 420.8 L1139.6 420.8 Z M1143.4 413.4 L1149.6 434.7 L1137.3 434.7 Z" fill="#160f0c"/><path d="M255.8 396.2 L260.5 418 L251 418 Z M255.8 409 L263.5 434.7 L248.1 434.7 Z" fill="#160f0c"/><path d="M850.3 399.3 L856 428.5 L844.6 428.5 Z M850.3 416.4 L859.5 450.6 L841.2 450.6 Z" fill="#0a0807"/><path d="M594.5 425.4 L597.4 439.4 L591.6 439.4 Z M594.5 433.6 L599.2 450.6 L589.8 450.6 Z" fill="#0a0807"/><path d="M1071 415.4 L1074.9 435.2 L1067.2 435.2 Z M1071 427 L1077.3 450.6 L1064.8 450.6 Z" fill="#0a0807"/><path d="M386.5 420.3 L390.1 437.3 L382.8 437.3 Z M386.5 430.3 L392.4 450.6 L380.5 450.6 Z" fill="#0a0807"/><path d="M948.7 398.5 L955.4 428.1 L942 428.1 Z M948.7 415.9 L959.5 450.6 L937.9 450.6 Z" fill="#0a0807"/><path d="M750.9 415.9 L755 435.5 L746.9 435.5 Z M750.9 427.4 L757.4 450.6 L744.4 450.6 Z" fill="#0a0807"/><path d="M685.7 406.3 L691.2 431.4 L680.1 431.4 Z M685.7 421 L694.7 450.6 L676.7 450.6 Z" fill="#0a0807"/><path d="M944.6 417.7 L949 436.2 L940.2 436.2 Z M944.6 428.5 L951.7 450.6 L937.5 450.6 Z" fill="#0a0807"/><path d="M1180.6 415.3 L1184.5 435.2 L1176.6 435.2 Z M1180.6 427 L1187 450.6 L1174.2 450.6 Z" fill="#0a0807"/><path d="M113.7 405.3 L119 431 L108.4 431 Z M113.7 420.4 L122.3 450.6 L105.2 450.6 Z" fill="#0a0807"/><path d="M371.2 427.3 L374.2 440.2 L368.1 440.2 Z M371.2 434.9 L376.1 450.6 L366.2 450.6 Z" fill="#0a0807"/><path d="M1132.6 409.2 L1137.9 432.6 L1127.2 432.6 Z M1132.6 422.9 L1141.2 450.6 L1123.9 450.6 Z" fill="#0a0807"/><path d="M918.6 421.3 L922.1 437.7 L915.1 437.7 Z M918.6 430.9 L924.2 450.6 L913 450.6 Z" fill="#0a0807"/><path d="M719.2 423.3 L722.4 438.6 L715.9 438.6 Z M719.2 432.3 L724.4 450.6 L713.9 450.6 Z" fill="#0a0807"/><path d="M25.5 423.4 L29 438.6 L21.9 438.6 Z M25.5 432.3 L31.2 450.6 L19.7 450.6 Z" fill="#0a0807"/><path d="M669 429.1 L671.4 441 L666.5 441 Z M669 436.1 L672.9 450.6 L665 450.6 Z" fill="#0a0807"/><path d="M4.1 427.8 L6.7 440.4 L1.6 440.4 Z M4.1 435.2 L8.2 450.6 L0.1 450.6 Z" fill="#0a0807"/><path d="M188.4 429.1 L190.7 441 L186.1 441 Z M188.4 436.1 L192.1 450.6 L184.7 450.6 Z" fill="#0a0807"/><path d="M391.3 426.8 L394 440 L388.6 440 Z M391.3 434.5 L395.6 450.6 L387 450.6 Z" fill="#0a0807"/><path d="M130.8 398.2 L137.4 428 L124.1 428 Z M130.8 415.7 L141.5 450.6 L120 450.6 Z" fill="#0a0807"/><path d="M490.4 421.6 L493.5 437.8 L487.3 437.8 Z M490.4 431.1 L495.5 450.6 L485.4 450.6 Z" fill="#0a0807"/><path d="M1187.1 418.9 L1190.3 436.7 L1183.8 436.7 Z M1187.1 429.4 L1192.3 450.6 L1181.8 450.6 Z" fill="#0a0807"/><path d="M100.6 403.1 L106.7 430.1 L94.4 430.1 Z M100.6 418.9 L110.5 450.6 L90.6 450.6 Z" fill="#0a0807"/><path d="M603.3 421.1 L606.9 437.6 L599.7 437.6 Z M603.3 430.8 L609.1 450.6 L597.5 450.6 Z" fill="#0a0807"/><path d="M655.9 397.8 L661.7 427.9 L650.1 427.9 Z M655.9 415.4 L665.2 450.6 L646.6 450.6 Z" fill="#0a0807"/><path d="M1175 402.6 L1181 429.8 L1169.1 429.8 Z M1175 418.6 L1184.6 450.6 L1165.4 450.6 Z" fill="#0a0807"/><path d="M421.2 400.1 L428 428.8 L414.3 428.8 Z M421.2 416.9 L432.2 450.6 L410.1 450.6 Z" fill="#0a0807"/><path d="M775 424.4 L778 439 L772 439 Z M775 433 L779.8 450.6 L770.1 450.6 Z" fill="#0a0807"/><path d="M573 406.5 L578.8 431.5 L567.2 431.5 Z M573 421.1 L582.4 450.6 L563.7 450.6 Z" fill="#0a0807"/><path d="M200.5 415.3 L204.7 435.2 L196.3 435.2 Z M200.5 427 L207.3 450.6 L193.7 450.6 Z" fill="#0a0807"/><line x1="329.9" y1="449.6" x2="346.7" y2="356.5" stroke="#0a0807" stroke-width="2"/><line x1="385.8" y1="449.6" x2="369" y2="356.5" stroke="#0a0807" stroke-width="2"/><line x1="334.1" y1="426.3" x2="381.6" y2="426.3" stroke="#0a0807" stroke-width="1.4"/><line x1="329.9" y1="449.6" x2="381.6" y2="426.3" stroke="#0a0807" stroke-width="1"/><line x1="385.8" y1="449.6" x2="334.1" y2="426.3" stroke="#0a0807" stroke-width="1"/><line x1="338.3" y1="403.1" x2="377.4" y2="403.1" stroke="#0a0807" stroke-width="1.4"/><line x1="334.1" y1="426.3" x2="377.4" y2="403.1" stroke="#0a0807" stroke-width="1"/><line x1="381.6" y1="426.3" x2="338.3" y2="403.1" stroke="#0a0807" stroke-width="1"/><line x1="342.5" y1="379.8" x2="373.2" y2="379.8" stroke="#0a0807" stroke-width="1.4"/><line x1="338.3" y1="403.1" x2="373.2" y2="379.8" stroke="#0a0807" stroke-width="1"/><line x1="377.4" y1="403.1" x2="342.5" y2="379.8" stroke="#0a0807" stroke-width="1"/><line x1="346.7" y1="356.5" x2="369" y2="356.5" stroke="#0a0807" stroke-width="1.4"/><line x1="342.5" y1="379.8" x2="369" y2="356.5" stroke="#0a0807" stroke-width="1"/><line x1="373.2" y1="379.8" x2="346.7" y2="356.5" stroke="#0a0807" stroke-width="1"/><rect x="343.3" y="344.4" width="29" height="12.1" fill="#0a0807"/><path d="M341.3 344.4 L357.8 336.1 L374.3 344.4 Z" fill="#0a0807"/><rect x="351.4" y="346.4" width="12.8" height="6" fill="#ffb24a" opacity="0.7"/><circle cx="662" cy="300.2" r="1.8" fill="#ffc24a" opacity="0.7"/><circle cx="829.1" cy="292.3" r="2.3" fill="#ffc24a" opacity="0.5"/><circle cx="682.4" cy="352.2" r="2.4" fill="#ffc24a" opacity="0.8"/><circle cx="378.1" cy="328.9" r="1.2" fill="#ff7a2a" opacity="0.8"/><circle cx="606.8" cy="304.2" r="1" fill="#ffc24a" opacity="0.7"/><circle cx="461.6" cy="384.8" r="2.4" fill="#ffc24a" opacity="0.4"/><circle cx="769.2" cy="424.9" r="1.5" fill="#ff7a2a" opacity="0.7"/><circle cx="547.5" cy="359" r="2.3" fill="#ffc24a" opacity="0.7"/><circle cx="402.8" cy="284.2" r="1.7" fill="#ffc24a" opacity="0.6"/><circle cx="759.9" cy="331.8" r="1.1" fill="#ff7a2a" opacity="0.5"/><circle cx="783" cy="353.4" r="1.7" fill="#ffc24a" opacity="0.5"/><circle cx="875.7" cy="296" r="1.8" fill="#ffc24a" opacity="0.7"/><circle cx="727.5" cy="351.7" r="2.3" fill="#ff7a2a" opacity="0.4"/><rect x="0" y="329.7" width="1200" height="90" fill="#ff8a3a" opacity="0.05"/><rect width="1200" height="630" fill="url(#vig)"/>
  <defs>
    <linearGradient id="ogscrim" x1="0" y1="0" x2="1" y2="0">
      <stop offset="0%" stop-color="#05080b" stop-opacity="0.94"/>
      <stop offset="52%" stop-color="#05080b" stop-opacity="0.6"/>
      <stop offset="100%" stop-color="#05080b" stop-opacity="0"/>
    </linearGradient>
    <linearGradient id="ogfade" x1="0" y1="1" x2="0" y2="0">
      <stop offset="0%" stop-color="#05080b" stop-opacity="0.82"/>
      <stop offset="34%" stop-color="#05080b" stop-opacity="0"/>
    </linearGradient>
  </defs>
  <rect width="1200" height="630" fill="url(#ogscrim)"/>
  <rect width="1200" height="630" fill="url(#ogfade)"/>
  <rect x="0" y="0" width="1200" height="6" fill="#ff6a2c"/>
  <g font-family="Saira, 'Segoe UI', system-ui, sans-serif">
    <text x="80" y="120" fill="#ffc24a" font-size="26" font-weight="700" letter-spacing="6">FIELD NOTES · BUCKET MY FIRE</text>
    <text x="80" y="170" fill="rgba(255,255,255,0.5)" font-size="22" font-weight="600" letter-spacing="3">WILDFIRE PREPAREDNESS</text>
    <text fill="#ffffff" font-size="60" font-weight="800"><tspan x="80" y="266">When a Wildfire Nears Your</tspan><tspan x="80" y="338">Home, Leave Early</tspan></text>
  </g>
  <text x="80" y="560" fill="rgba(255,255,255,0.62)" font-family="'JetBrains Mono', monospace" font-size="22">Every fact cited to an official source.</text>
</svg>