<svg xmlns="http://www.w3.org/2000/svg" width="1200" height="630" viewBox="0 0 1200 630">
  <defs><linearGradient id="sky" x1="0" y1="0" x2="0" y2="1"><stop offset="0" stop-color="#0a0a14"/><stop offset="0.5" stop-color="#181018"/><stop offset="0.82" stop-color="#3a1a12"/><stop offset="1" stop-color="#5e2a12"/></linearGradient><radialGradient id="fireglow" cx="50.4%" cy="53.3%" r="60%"><stop offset="0" stop-color="#ff7a2a" stop-opacity="0.7"/><stop offset="0.4" stop-color="#ff6a2c" stop-opacity="0.2"/><stop offset="1" stop-color="#ff6a2c" stop-opacity="0"/></radialGradient><linearGradient id="lake" x1="0" y1="0" x2="0" y2="1"><stop offset="0" stop-color="#2a1c18"/><stop offset="1" stop-color="#070a0d"/></linearGradient><radialGradient id="refl" cx="50%" cy="0%" r="85%"><stop offset="0" stop-color="#ff8a3a" stop-opacity="0.32"/><stop offset="1" stop-color="#ff8a3a" stop-opacity="0"/></radialGradient><radialGradient id="fire" cx="50%" cy="50%" r="50%"><stop offset="0" stop-color="#ffe08a" stop-opacity="0.95"/><stop offset="0.22" stop-color="#ff9a3a" stop-opacity="0.7"/><stop offset="0.55" stop-color="#ff6a2c" stop-opacity="0.26"/><stop offset="1" stop-color="#ff6a2c" stop-opacity="0"/></radialGradient><linearGradient id="water" x1="0" y1="0" x2="0" y2="1"><stop offset="0" stop-color="#bfe0ff" stop-opacity="0.55"/><stop offset="1" stop-color="#7fb6e8" stop-opacity="0.18"/></linearGradient><linearGradient id="aurora" x1="0" y1="0" x2="0" y2="1"><stop offset="0" stop-color="#6affc0" stop-opacity="0"/><stop offset="0.5" stop-color="#57f0b0" stop-opacity="0.85"/><stop offset="1" stop-color="#3ad0ff" stop-opacity="0"/></linearGradient><radialGradient id="vig" cx="50%" cy="42%" r="75%"><stop offset="0.62" stop-color="#000" stop-opacity="0"/><stop offset="1" stop-color="#000" stop-opacity="0.4"/></radialGradient></defs><rect width="1200" height="630" fill="url(#sky)"/><rect width="1200" height="630" fill="url(#fireglow)"/><circle cx="424.2" cy="41.1" r="0.8" fill="#fff" opacity="0.3"/><circle cx="1070.6" cy="273.9" r="0.8" fill="#fff" opacity="0.1"/><circle cx="1130.8" cy="139.2" r="0.4" fill="#fff" opacity="0.2"/><circle cx="782.7" cy="108.6" r="1" fill="#fff" opacity="0.3"/><circle cx="200.8" cy="1.7" r="1.2" fill="#fff" opacity="0.4"/><circle cx="647.6" cy="179.8" r="1.2" fill="#fff" opacity="0.3"/><circle cx="549.6" cy="20.2" r="0.5" fill="#fff" opacity="0.3"/><circle cx="596" cy="4.8" r="1.3" fill="#fff" opacity="0.4"/><circle cx="1083.8" cy="239.5" r="0.6" fill="#fff" opacity="0.4"/><circle cx="856.9" cy="159.7" r="0.8" fill="#fff" opacity="0.1"/><circle cx="5.1" cy="225.2" r="1" fill="#fff" opacity="0.2"/><circle cx="1192.1" cy="88.1" r="1" fill="#fff" opacity="0.4"/><circle cx="181.1" cy="254.3" r="0.7" fill="#fff" opacity="0.3"/><path d="M0 329.1 L30 328.5 L60 326.9 L90 324.9 L120 322.7 L150 320.8 L180 319.5 L210 319.2 L240 318.6 L270 317.7 L300 316.5 L330 315.2 L360 314.3 L390 313.7 L420 313.7 L450 314 L480 314.3 L510 314.7 L540 315 L570 315.3 L600 315.4 L630 316.2 L660 318.2 L690 320.8 L720 323.7 L750 326.1 L780 327.8 L810 328.1 L840 328.3 L870 328.7 L900 329.1 L930 329.5 L960 329.9 L990 330 L1020 329.7 L1050 328.3 L1080 326.2 L1110 323.7 L1140 321.4 L1170 319.7 L1200 319.1 L1200 630 L0 630 Z" fill="#5e3622" opacity="0.5"/><path d="M0 329.1 L30 328.5 L60 326.9 L90 324.9 L120 322.7 L150 320.8 L180 319.5 L210 319.2 L240 318.6 L270 317.7 L300 316.5 L330 315.2 L360 314.3 L390 313.7 L420 313.7 L450 314 L480 314.3 L510 314.7 L540 315 L570 315.3 L600 315.4 L630 316.2 L660 318.2 L690 320.8 L720 323.7 L750 326.1 L780 327.8 L810 328.1 L840 328.3 L870 328.7 L900 329.1 L930 329.5 L960 329.9 L990 330 L1020 329.7 L1050 328.3 L1080 326.2 L1110 323.7 L1140 321.4 L1170 319.7 L1200 319.1" fill="none" stroke="#ff8a3a" stroke-width="1" opacity="0.1"/><path d="M0 347.8 L30 346.7 L60 344.1 L90 340.6 L120 337.3 L150 335 L180 334.4 L210 333.2 L240 330.9 L270 328.4 L300 326 L330 324.7 L360 324.9 L390 327.5 L420 331.3 L450 335.5 L480 338.9 L510 340.6 L540 340.6 L570 340.5 L600 340.3 L630 340.2 L660 340.1 L690 340.1 L720 342.1 L750 346.5 L780 351.7 L810 356.6 L840 359.8 L870 359.8 L900 354.8 L930 346.6 L960 337.3 L990 329.4 L1020 325 L1050 325.8 L1080 330.1 L1110 336.1 L1140 342.4 L1170 347.4 L1200 349.4 L1200 630 L0 630 Z" fill="#3a2117" opacity="0.72"/><path d="M0 347.8 L30 346.7 L60 344.1 L90 340.6 L120 337.3 L150 335 L180 334.4 L210 333.2 L240 330.9 L270 328.4 L300 326 L330 324.7 L360 324.9 L390 327.5 L420 331.3 L450 335.5 L480 338.9 L510 340.6 L540 340.6 L570 340.5 L600 340.3 L630 340.2 L660 340.1 L690 340.1 L720 342.1 L750 346.5 L780 351.7 L810 356.6 L840 359.8 L870 359.8 L900 354.8 L930 346.6 L960 337.3 L990 329.4 L1020 325 L1050 325.8 L1080 330.1 L1110 336.1 L1140 342.4 L1170 347.4 L1200 349.4" fill="none" stroke="#ff8a3a" stroke-width="1" opacity="0.1"/><path d="M0 359.5 L30 363.8 L60 374.3 L90 386.7 L120 397.1 L150 401.5 L180 401.6 L210 402 L240 402.4 L270 402.7 L300 402.8 L330 401.9 L360 399.8 L390 397.2 L420 395.1 L450 394.2 L480 389.4 L510 378 L540 364.4 L570 353.1 L600 348.3 L630 352.6 L660 363.1 L690 375.5 L720 385.9 L750 390.3 L780 386.7 L810 378 L840 367.7 L870 359.1 L900 355.5 L930 356.6 L960 359.1 L990 362.1 L1020 364.7 L1050 365.7 L1080 365 L1110 363.3 L1140 361.2 L1170 359.4 L1200 358.7 L1200 630 L0 630 Z" fill="#20140f" opacity="0.9"/><path d="M0 359.5 L30 363.8 L60 374.3 L90 386.7 L120 397.1 L150 401.5 L180 401.6 L210 402 L240 402.4 L270 402.7 L300 402.8 L330 401.9 L360 399.8 L390 397.2 L420 395.1 L450 394.2 L480 389.4 L510 378 L540 364.4 L570 353.1 L600 348.3 L630 352.6 L660 363.1 L690 375.5 L720 385.9 L750 390.3 L780 386.7 L810 378 L840 367.7 L870 359.1 L900 355.5 L930 356.6 L960 359.1 L990 362.1 L1020 364.7 L1050 365.7 L1080 365 L1110 363.3 L1140 361.2 L1170 359.4 L1200 358.7" fill="none" stroke="#ff8a3a" stroke-width="1" opacity="0.2"/><ellipse cx="604.8" cy="348.3" rx="54.8" ry="25.3" fill="url(#fire)"/><ellipse cx="604.8" cy="347.3" rx="5.3" ry="3.2" fill="#fff0c4" opacity="0.85"/><ellipse cx="604.8" cy="348.3" rx="9.5" ry="7.8" fill="#5a3a2a" opacity="0.4"/><ellipse cx="604" cy="326.8" rx="15.6" ry="12.8" fill="#5a3a2a" opacity="0.3"/><ellipse cx="602.1" cy="305.4" rx="21.7" ry="17.8" fill="#5a3a2a" opacity="0.3"/><ellipse cx="597.8" cy="283.9" rx="27.8" ry="22.8" fill="#46434c" opacity="0.3"/><ellipse cx="592.8" cy="262.4" rx="33.9" ry="27.8" fill="#46434c" opacity="0.2"/><ellipse cx="590.7" cy="240.9" rx="40" ry="32.8" fill="#46434c" opacity="0.2"/><ellipse cx="593.2" cy="219.5" rx="46.1" ry="37.8" fill="#46434c" opacity="0.2"/><ellipse cx="597.7" cy="198" rx="52.2" ry="42.8" fill="#46434c" opacity="0.1"/><ellipse cx="598.9" cy="176.5" rx="58.4" ry="47.8" fill="#46434c" opacity="0.1"/><ellipse cx="592.8" cy="155.1" rx="64.5" ry="52.9" fill="#46434c" opacity="0.1"/><ellipse cx="581.4" cy="133.6" rx="70.6" ry="57.9" fill="#46434c" opacity="0.1"/><rect x="0" y="443.3" width="1200" height="186.7" fill="url(#lake)"/><rect x="0" y="443.3" width="1200" height="1.5" fill="#ff9a4a" opacity="0.26"/><ellipse cx="604.8" cy="443.3" rx="39.2" ry="102.7" fill="url(#refl)"/><path d="M1033.4 383.6 L1035.5 393.2 L1031.3 393.2 Z M1033.4 389.2 L1036.8 401.1 L1030.1 401.1 Z" fill="#160f0c"/><path d="M239 364.2 L243.1 385 L234.9 385 Z M239 376.4 L245.6 401.1 L232.4 401.1 Z" fill="#160f0c"/><path d="M796.2 367.8 L800.3 386.5 L792.2 386.5 Z M796.2 378.8 L802.8 401.1 L789.7 401.1 Z" fill="#160f0c"/><path d="M111.4 365.5 L115.1 385.6 L107.6 385.6 Z M111.4 377.3 L117.5 401.1 L105.2 401.1 Z" fill="#160f0c"/><path d="M885.6 375.2 L888.6 389.7 L882.7 389.7 Z M885.6 383.7 L890.4 401.1 L880.8 401.1 Z" fill="#160f0c"/><path d="M1135.6 370.3 L1139.1 387.6 L1132 387.6 Z M1135.6 380.4 L1141.3 401.1 L1129.8 401.1 Z" fill="#160f0c"/><path d="M159.1 379.5 L161.3 391.4 L156.8 391.4 Z M159.1 386.5 L162.6 401.1 L155.5 401.1 Z" fill="#160f0c"/><path d="M663.7 373.9 L667 389.1 L660.5 389.1 Z M663.7 382.8 L668.9 401.1 L658.5 401.1 Z" fill="#160f0c"/><path d="M1058.7 363.6 L1062.7 384.8 L1054.7 384.8 Z M1058.7 376 L1065.1 401.1 L1052.2 401.1 Z" fill="#160f0c"/><path d="M1029.4 370.3 L1033 387.6 L1025.7 387.6 Z M1029.4 380.4 L1035.2 401.1 L1023.5 401.1 Z" fill="#160f0c"/><path d="M1130.6 382.5 L1132.6 392.7 L1128.6 392.7 Z M1130.6 388.5 L1133.8 401.1 L1127.4 401.1 Z" fill="#160f0c"/><path d="M611.3 375.5 L613.9 389.8 L608.6 389.8 Z M611.3 383.9 L615.6 401.1 L607 401.1 Z" fill="#160f0c"/><path d="M568.1 383.8 L570.4 393.3 L565.9 393.3 Z M568.1 389.4 L571.7 401.1 L564.6 401.1 Z" fill="#160f0c"/><path d="M755.8 376.2 L758.8 390.1 L752.8 390.1 Z M755.8 384.3 L760.6 401.1 L751 401.1 Z" fill="#160f0c"/><path d="M332.2 371.3 L336.1 388 L328.2 388 Z M332.2 381.1 L338.5 401.1 L325.8 401.1 Z" fill="#160f0c"/><path d="M838.9 376.7 L842.1 390.3 L835.7 390.3 Z M838.9 384.7 L844.1 401.1 L833.8 401.1 Z" fill="#160f0c"/><path d="M352.3 365.8 L356.5 385.7 L348.2 385.7 Z M352.3 377.5 L359 401.1 L345.7 401.1 Z" fill="#160f0c"/><path d="M1141 378.2 L1143.6 390.9 L1138.3 390.9 Z M1141 385.7 L1145.2 401.1 L1136.7 401.1 Z" fill="#160f0c"/><path d="M913.2 375.9 L915.9 389.9 L910.5 389.9 Z M913.2 384.1 L917.6 401.1 L908.8 401.1 Z" fill="#160f0c"/><path d="M694.5 383.5 L696.4 393.1 L692.7 393.1 Z M694.5 389.1 L697.5 401.1 L691.5 401.1 Z" fill="#160f0c"/><path d="M1047.3 368 L1051.6 386.6 L1042.9 386.6 Z M1047.3 378.9 L1054.3 401.1 L1040.3 401.1 Z" fill="#160f0c"/><path d="M676 371.2 L679.3 388 L672.7 388 Z M676 381 L681.3 401.1 L670.7 401.1 Z" fill="#160f0c"/><path d="M450.8 374.3 L453.7 389.3 L447.8 389.3 Z M450.8 383.1 L455.5 401.1 L446 401.1 Z" fill="#160f0c"/><path d="M1166.1 378.1 L1168.6 390.9 L1163.7 390.9 Z M1166.1 385.6 L1170.1 401.1 L1162.2 401.1 Z" fill="#160f0c"/><path d="M537.1 369.3 L541.2 387.2 L533 387.2 Z M537.1 379.8 L543.7 401.1 L530.5 401.1 Z" fill="#160f0c"/><path d="M452.3 361.6 L457.4 383.9 L447.2 383.9 Z M452.3 374.7 L460.5 401.1 L444 401.1 Z" fill="#160f0c"/><path d="M1181.5 399.9 L1188 426.3 L1175.1 426.3 Z M1181.5 415.4 L1191.9 446.3 L1171.2 446.3 Z" fill="#0a0807"/><path d="M194.4 422.5 L197.4 435.7 L191.5 435.7 Z M194.4 430.2 L199.2 446.3 L189.7 446.3 Z" fill="#0a0807"/><path d="M857.6 406.4 L862.3 429 L852.9 429 Z M857.6 419.6 L865.2 446.3 L850 446.3 Z" fill="#0a0807"/><path d="M982.3 418.7 L986 434.1 L978.5 434.1 Z M982.3 427.7 L988.3 446.3 L976.2 446.3 Z" fill="#0a0807"/><path d="M465.1 421.4 L467.7 435.3 L462.4 435.3 Z M465.1 429.5 L469.4 446.3 L460.8 446.3 Z" fill="#0a0807"/><path d="M442.5 408.3 L447.5 429.8 L437.6 429.8 Z M442.5 420.9 L450.6 446.3 L434.5 446.3 Z" fill="#0a0807"/><path d="M504.2 418.3 L507.2 434 L501.2 434 Z M504.2 427.5 L509.1 446.3 L499.4 446.3 Z" fill="#0a0807"/><path d="M443.9 407.7 L448.6 429.5 L439.1 429.5 Z M443.9 420.5 L451.6 446.3 L436.1 446.3 Z" fill="#0a0807"/><path d="M663.1 405.5 L668.6 428.6 L657.5 428.6 Z M663.1 419 L672 446.3 L654.1 446.3 Z" fill="#0a0807"/><path d="M102.4 395 L108.8 424.2 L96 424.2 Z M102.4 412.1 L112.7 446.3 L92.1 446.3 Z" fill="#0a0807"/><path d="M1069.2 406.9 L1074.5 429.2 L1064 429.2 Z M1069.2 419.9 L1077.7 446.3 L1060.8 446.3 Z" fill="#0a0807"/><path d="M74.8 418.4 L77.8 434 L71.8 434 Z M74.8 427.5 L79.7 446.3 L69.9 446.3 Z" fill="#0a0807"/><path d="M-5.5 420.1 L-2.8 434.7 L-8.2 434.7 Z M-5.5 428.6 L-1.1 446.3 L-9.9 446.3 Z" fill="#0a0807"/><path d="M953.5 407.5 L958.8 429.4 L948.2 429.4 Z M953.5 420.4 L962 446.3 L944.9 446.3 Z" fill="#0a0807"/><path d="M751.3 408.8 L755.5 430 L747.1 430 Z M751.3 421.2 L758 446.3 L744.5 446.3 Z" fill="#0a0807"/><path d="M56.1 421.5 L59.4 435.3 L52.9 435.3 Z M56.1 429.6 L61.4 446.3 L50.9 446.3 Z" fill="#0a0807"/><path d="M585.9 415.1 L589.5 432.6 L582.2 432.6 Z M585.9 425.4 L591.8 446.3 L580 446.3 Z" fill="#0a0807"/><path d="M575.7 425.2 L578 436.9 L573.5 436.9 Z M575.7 432 L579.3 446.3 L572.1 446.3 Z" fill="#0a0807"/><path d="M950.1 393.9 L956.5 423.7 L943.7 423.7 Z M950.1 411.4 L960.5 446.3 L939.8 446.3 Z" fill="#0a0807"/><path d="M1079.1 405.3 L1084 428.5 L1074.1 428.5 Z M1079.1 418.9 L1087.1 446.3 L1071 446.3 Z" fill="#0a0807"/><path d="M637.1 415.5 L640.4 432.8 L633.7 432.8 Z M637.1 425.6 L642.5 446.3 L631.7 446.3 Z" fill="#0a0807"/><path d="M445.8 420.8 L449 435 L442.6 435 Z M445.8 429.1 L451 446.3 L440.7 446.3 Z" fill="#0a0807"/><path d="M373.5 405.3 L378.9 428.5 L368 428.5 Z M373.5 418.9 L382.3 446.3 L364.7 446.3 Z" fill="#0a0807"/><path d="M804.6 421.5 L807.5 435.3 L801.6 435.3 Z M804.6 429.6 L809.3 446.3 L799.9 446.3 Z" fill="#0a0807"/><path d="M710.3 410.7 L714.8 430.8 L705.8 430.8 Z M710.3 422.5 L717.6 446.3 L703 446.3 Z" fill="#0a0807"/><path d="M126 420.6 L128.7 434.9 L123.4 434.9 Z M126 429 L130.3 446.3 L121.8 446.3 Z" fill="#0a0807"/><path d="M25.4 413.7 L28.9 432 L21.9 432 Z M25.4 424.5 L31.1 446.3 L19.8 446.3 Z" fill="#0a0807"/><path d="M132.1 416.6 L135.7 433.3 L128.4 433.3 Z M132.1 426.4 L137.9 446.3 L126.2 446.3 Z" fill="#0a0807"/><path d="M243.6 394.1 L250 423.8 L237.2 423.8 Z M243.6 411.5 L253.9 446.3 L233.3 446.3 Z" fill="#0a0807"/><path d="M974.9 395.6 L981.7 424.5 L968 424.5 Z M974.9 412.5 L985.9 446.3 L963.8 446.3 Z" fill="#0a0807"/><line x1="928.4" y1="445.3" x2="942.3" y2="368.1" stroke="#0a0807" stroke-width="1.7"/><line x1="974.7" y1="445.3" x2="960.8" y2="368.1" stroke="#0a0807" stroke-width="1.7"/><line x1="931.9" y1="426" x2="971.2" y2="426" stroke="#0a0807" stroke-width="1.2"/><line x1="928.4" y1="445.3" x2="971.2" y2="426" stroke="#0a0807" stroke-width="0.8"/><line x1="974.7" y1="445.3" x2="931.9" y2="426" stroke="#0a0807" stroke-width="0.8"/><line x1="935.3" y1="406.7" x2="967.8" y2="406.7" stroke="#0a0807" stroke-width="1.2"/><line x1="931.9" y1="426" x2="967.8" y2="406.7" stroke="#0a0807" stroke-width="0.8"/><line x1="971.2" y1="426" x2="935.3" y2="406.7" stroke="#0a0807" stroke-width="0.8"/><line x1="938.8" y1="387.4" x2="964.3" y2="387.4" stroke="#0a0807" stroke-width="1.2"/><line x1="935.3" y1="406.7" x2="964.3" y2="387.4" stroke="#0a0807" stroke-width="0.8"/><line x1="967.8" y1="406.7" x2="938.8" y2="387.4" stroke="#0a0807" stroke-width="0.8"/><line x1="942.3" y1="368.1" x2="960.8" y2="368.1" stroke="#0a0807" stroke-width="1.2"/><line x1="938.8" y1="387.4" x2="960.8" y2="368.1" stroke="#0a0807" stroke-width="0.8"/><line x1="964.3" y1="387.4" x2="942.3" y2="368.1" stroke="#0a0807" stroke-width="0.8"/><rect x="939.5" y="358.1" width="24.1" height="10" fill="#0a0807"/><path d="M937.5 358.1 L951.5 351.1 L965.6 358.1 Z" fill="#0a0807"/><rect x="946.2" y="359.7" width="10.6" height="5" fill="#ffb24a" opacity="0.7"/><circle cx="437.8" cy="285.2" r="2.4" fill="#ff7a2a" opacity="0.8"/><circle cx="572.5" cy="241.5" r="1.3" fill="#ffc24a" opacity="0.7"/><circle cx="506.1" cy="337.2" r="1.4" fill="#ffc24a" opacity="0.7"/><circle cx="821.1" cy="254.2" r="1.7" fill="#ffc24a" opacity="0.4"/><circle cx="358.8" cy="263.7" r="2.1" fill="#ffc24a" opacity="0.6"/><circle cx="495.2" cy="277.5" r="1.2" fill="#ffc24a" opacity="0.6"/><circle cx="690.5" cy="251.8" r="1" fill="#ff7a2a" opacity="0.3"/><circle cx="566.4" cy="262.8" r="0.8" fill="#ffc24a" opacity="0.4"/><circle cx="801.8" cy="275.2" r="1.3" fill="#ffc24a" opacity="0.4"/><circle cx="677.8" cy="387.5" r="2.3" fill="#ffc24a" opacity="0.5"/><circle cx="725.2" cy="267.5" r="1.2" fill="#ffc24a" opacity="0.6"/><circle cx="728" cy="321.9" r="1.7" fill="#ff7a2a" opacity="0.3"/><circle cx="443.8" cy="272" r="1.3" fill="#ffc24a" opacity="0.6"/><rect x="0" y="296.1" width="1200" height="90" fill="#ff8a3a" opacity="0.05"/><rect width="1200" height="630" fill="url(#vig)"/>
  <defs>
    <linearGradient id="ogscrim" x1="0" y1="0" x2="1" y2="0">
      <stop offset="0%" stop-color="#05080b" stop-opacity="0.94"/>
      <stop offset="52%" stop-color="#05080b" stop-opacity="0.6"/>
      <stop offset="100%" stop-color="#05080b" stop-opacity="0"/>
    </linearGradient>
    <linearGradient id="ogfade" x1="0" y1="1" x2="0" y2="0">
      <stop offset="0%" stop-color="#05080b" stop-opacity="0.82"/>
      <stop offset="34%" stop-color="#05080b" stop-opacity="0"/>
    </linearGradient>
  </defs>
  <rect width="1200" height="630" fill="url(#ogscrim)"/>
  <rect width="1200" height="630" fill="url(#ogfade)"/>
  <rect x="0" y="0" width="1200" height="6" fill="#ff6a2c"/>
  <g font-family="'JetBrains Mono', ui-monospace, monospace">
    <text x="80" y="120" fill="#ffc24a" font-size="26" font-weight="700" letter-spacing="6">FIELD NOTES · BUCKET MY FIRE</text>
    <text x="80" y="170" fill="rgba(255,255,255,0.5)" font-size="22" font-weight="600" letter-spacing="3">WILDFIRE PREPAREDNESS</text>
    <text fill="#ffffff" font-size="60" font-weight="800"><tspan x="80" y="266">Keep Wildfire Smoke Out of</tspan><tspan x="80" y="338">Your House</tspan></text>
  </g>
  <text x="80" y="560" fill="rgba(255,255,255,0.62)" font-family="'JetBrains Mono', monospace" font-size="22">Every fact cited to an official source.</text>
</svg>